M48
;Layer_Color=9474304
;FILE_FORMAT=2:5
INCH,LZ
;TYPE=PLATED
T1F00S00C0.03543
%
T01
X02677Y00232
Y00332
Y00432
X03077
Y00332
Y00232
X03377
Y00332
Y00432
X03677
Y00332
Y00232
X03977
Y00332
Y00432
X03677Y0058
X03077
X02377
Y00432
Y00332
Y00232
X02077
Y00332
Y00432
X01777
Y00332
Y00232
Y0058
X01265Y0026
X01165
X01065
X00876Y00232
Y00332
X00955Y00769
X00785Y01069
X00685
X00585
X00432
X00332
X00232
Y00769
X00332
X00432
Y01369
X00332
X00232
Y01669
X00332
X00432
X00585
X00685
X00785
X00955Y01969
X00432
X00332
X00232
X00955Y01369
X01055
X01155
Y01969
X01055
Y00769
X01155
X01777Y0078
Y0068
X02077Y0092
Y0102
Y0112
X02377Y0078
Y0068
X02677Y0092
Y0102
Y0112
X03377
Y0102
Y0092
X03077Y0078
Y0068
X03677
Y0078
X03977Y0092
Y0102
Y0112
X046Y01095
X047
X048
X0497Y00814
X0507
X0517
X05322
X05422
X05522
Y01114
X05422
X05322
Y01414
X05422
X05522
Y01714
X05422
X05322
Y02014
X05422
X05522
X0517
X0507
X0497
X048Y01714
X047
X046
X0497Y01414
X0507
X0517
X05322Y02314
X05422
X05522
Y02614
X05422
X05322
X0517
X0507
X0497
X048Y02314
X047
X046
Y02914
X047
X048
X0497Y03214
X0507
X0517
X05322
X05422
X05522
Y0351
X05422
X05322
X048
X047
X046
X05322Y02914
X05422
X05522
X01155Y03169
X01055
Y02569
X01155
X00955
X00785Y02869
X00685
X00585
X00432
X00332
X00232
Y02569
X00332
X00432
Y02269
X00332
X00232
X00585
X00685
X00785
X00955Y03169
X00785Y03469
X00685
X00585
X00432
X00332
X00232
Y03169
X00332
X00432
M30
