G04*
G04 #@! TF.GenerationSoftware,Altium Limited,Altium Designer,18.1.9 (240)*
G04*
G04 Layer_Color=32896*
%FSLAX44Y44*%
%MOMM*%
G71*
G01*
G75*
%ADD10C,0.2540*%
%ADD11C,0.2000*%
D10*
X181610Y74925D02*
Y64768D01*
X176532Y59690D01*
X171453Y64768D01*
Y74925D01*
X166375Y59690D02*
X161297D01*
X163836D01*
Y69847D01*
X166375D01*
X153679Y59690D02*
Y69847D01*
X146061D01*
X143522Y67308D01*
Y59690D01*
X138444Y74925D02*
Y59690D01*
Y67308D01*
X135905Y69847D01*
X130826D01*
X128287Y67308D01*
Y59690D01*
X107974D02*
Y74925D01*
X100356D01*
X97817Y72386D01*
Y67308D01*
X100356Y64768D01*
X107974D01*
X92739Y74925D02*
Y59690D01*
Y67308D01*
X90200Y69847D01*
X85121D01*
X82582Y67308D01*
Y59690D01*
X74964Y69847D02*
X69886D01*
X67347Y67308D01*
Y59690D01*
X74964D01*
X77504Y62229D01*
X74964Y64768D01*
X67347D01*
X62269Y59690D02*
Y69847D01*
X59729D01*
X57190Y67308D01*
Y59690D01*
Y67308D01*
X54651Y69847D01*
X52112Y67308D01*
Y59690D01*
X311150Y21590D02*
Y36825D01*
X306072Y31747D01*
X300993Y36825D01*
Y21590D01*
X293376D02*
X288297D01*
X285758Y24129D01*
Y29207D01*
X288297Y31747D01*
X293376D01*
X295915Y29207D01*
Y24129D01*
X293376Y21590D01*
X280680D02*
X275602D01*
X278141D01*
Y36825D01*
X280680D01*
X260366Y21590D02*
X265445D01*
X267984Y24129D01*
Y29207D01*
X265445Y31747D01*
X260366D01*
X257827Y29207D01*
Y26668D01*
X267984D01*
X252749Y31747D02*
X242592Y21590D01*
X247670Y26668D01*
X242592Y31747D01*
X252749Y21590D01*
X222279D02*
Y36825D01*
X214661D01*
X212122Y34286D01*
Y29207D01*
X214661Y26668D01*
X222279D01*
X217200D02*
X212122Y21590D01*
X207044D02*
X201965D01*
X204505D01*
Y31747D01*
X207044D01*
X191809Y21590D02*
X186730D01*
X184191Y24129D01*
Y29207D01*
X186730Y31747D01*
X191809D01*
X194348Y29207D01*
Y24129D01*
X191809Y21590D01*
X163878D02*
Y36825D01*
X156260D01*
X153721Y34286D01*
Y29207D01*
X156260Y26668D01*
X163878D01*
X148643Y31747D02*
Y21590D01*
Y26668D01*
X146103Y29207D01*
X143564Y31747D01*
X141025D01*
X130868Y21590D02*
X125790D01*
X123251Y24129D01*
Y29207D01*
X125790Y31747D01*
X130868D01*
X133407Y29207D01*
Y24129D01*
X130868Y21590D01*
X102937Y36825D02*
Y26668D01*
X97859Y21590D01*
X92781Y26668D01*
Y36825D01*
X87702Y21590D02*
X82624D01*
X85163D01*
Y36825D01*
X87702Y34286D01*
X75006Y21590D02*
Y24129D01*
X72467D01*
Y21590D01*
X75006D01*
X62311Y34286D02*
X59771Y36825D01*
X54693D01*
X52154Y34286D01*
Y24129D01*
X54693Y21590D01*
X59771D01*
X62311Y24129D01*
Y34286D01*
X1112266Y952500D02*
G03*
X1080516Y920750I0J-31750D01*
G01*
X1326760Y111750D02*
G03*
X1306760Y131750I-20000J0D01*
G01*
Y31750D02*
G03*
X1326760Y51750I0J20000D01*
G01*
X1126760D02*
G03*
X1146760Y31750I20000J0D01*
G01*
Y131750D02*
G03*
X1126760Y111750I0J-20000D01*
G01*
X1460500Y920750D02*
G03*
X1428750Y952500I-31750J0D01*
G01*
X1048766Y317500D02*
G03*
X1080516Y349250I0J31750D01*
G01*
X381000D02*
G03*
X412750Y317500I31750J0D01*
G01*
X381000Y920750D02*
G03*
X349250Y952500I-31750J0D01*
G01*
X31750D02*
G03*
X0Y920750I0J-31750D01*
G01*
Y76200D02*
G03*
X76200Y0I76200J0D01*
G01*
X1384300D02*
G03*
X1460500Y76200I0J76200D01*
G01*
X76200Y0D02*
X1384300D01*
X0Y76200D02*
Y920750D01*
X31750Y952500D02*
X349250D01*
X381000Y920750D02*
X381000Y349250D01*
X412750Y317500D02*
X1048766D01*
X1080516Y349250D02*
Y920750D01*
X1112266Y952500D02*
X1428750D01*
X1460500Y76200D02*
Y920750D01*
X1146760Y131750D02*
X1306760D01*
X1326760Y51750D02*
Y111750D01*
X1146760Y31750D02*
X1306760D01*
X1126760Y51750D02*
Y111750D01*
D11*
X209804Y97028D02*
X235204D01*
X209804Y46228D02*
Y97028D01*
Y46228D02*
X235204D01*
Y97028D01*
X667258Y46228D02*
Y122428D01*
X692658D01*
Y46228D02*
Y122428D01*
X667258Y46228D02*
X692658D01*
X591058D02*
Y122428D01*
X616458D01*
Y46228D02*
Y122428D01*
X591058Y46228D02*
X616458D01*
X514858D02*
Y122428D01*
X540258D01*
Y46228D02*
Y122428D01*
X514858Y46228D02*
X540258D01*
X438658D02*
Y122428D01*
X464058D01*
Y46228D02*
Y122428D01*
X438658Y46228D02*
X464058D01*
X1339088Y194056D02*
X1415288D01*
X1339088D02*
Y219456D01*
X1415288D01*
Y194056D02*
Y219456D01*
X1339088Y270256D02*
X1415288D01*
X1339088D02*
Y295656D01*
X1415288D01*
Y270256D02*
Y295656D01*
X1339088Y346456D02*
X1415288D01*
X1339088D02*
Y371856D01*
X1415288D01*
Y346456D02*
Y371856D01*
X1339088Y422656D02*
X1415288D01*
X1339088D02*
Y448056D01*
X1415288D01*
Y422656D02*
Y448056D01*
X1339088Y498856D02*
X1415288D01*
X1339088D02*
Y524256D01*
X1415288D01*
Y498856D02*
Y524256D01*
X1339088Y575056D02*
X1415288D01*
X1339088D02*
Y600456D01*
X1415288D01*
Y575056D02*
Y600456D01*
X1339088Y651256D02*
X1415288D01*
X1339088D02*
Y676656D01*
X1415288D01*
Y651256D02*
Y676656D01*
X1339088Y803656D02*
X1415288D01*
X1339088D02*
Y829056D01*
X1415288D01*
Y803656D02*
Y829056D01*
X1339088Y878840D02*
X1415288D01*
X1339088D02*
Y904240D01*
X1415288D01*
Y878840D02*
Y904240D01*
X46228Y208026D02*
X122428D01*
Y182626D02*
Y208026D01*
X46228Y182626D02*
X122428D01*
X46228D02*
Y208026D01*
Y284226D02*
X122428D01*
Y258826D02*
Y284226D01*
X46228Y258826D02*
X122428D01*
X46228D02*
Y284226D01*
Y360426D02*
X122428D01*
Y335026D02*
Y360426D01*
X46228Y335026D02*
X122428D01*
X46228D02*
Y360426D01*
Y436626D02*
X122428D01*
Y411226D02*
Y436626D01*
X46228Y411226D02*
X122428D01*
X46228D02*
Y436626D01*
Y512826D02*
X122428D01*
Y487426D02*
Y512826D01*
X46228Y487426D02*
X122428D01*
X46228D02*
Y512826D01*
Y589026D02*
X122428D01*
Y563626D02*
Y589026D01*
X46228Y563626D02*
X122428D01*
X46228D02*
Y589026D01*
Y665226D02*
X122428D01*
Y639826D02*
Y665226D01*
X46228Y639826D02*
X122428D01*
X46228D02*
Y665226D01*
Y741426D02*
X122428D01*
Y716026D02*
Y741426D01*
X46228Y716026D02*
X122428D01*
X46228D02*
Y741426D01*
Y817626D02*
X122428D01*
Y792226D02*
Y817626D01*
X46228Y792226D02*
X122428D01*
X46228D02*
Y817626D01*
Y893826D02*
X122428D01*
Y868426D02*
Y893826D01*
X46228Y868426D02*
X122428D01*
X46228D02*
Y893826D01*
X997458Y46228D02*
Y122428D01*
X1022858D01*
Y46228D02*
Y122428D01*
X997458Y46228D02*
X1022858D01*
X921258D02*
Y122428D01*
X946658D01*
Y46228D02*
Y122428D01*
X921258Y46228D02*
X946658D01*
X845058D02*
Y122428D01*
X870458D01*
Y46228D02*
Y122428D01*
X845058Y46228D02*
X870458D01*
X768858D02*
Y122428D01*
X794258D01*
Y46228D02*
Y122428D01*
X768858Y46228D02*
X794258D01*
X1339088Y727456D02*
X1415288D01*
X1339088D02*
Y752856D01*
X1415288D01*
Y727456D02*
Y752856D01*
M02*
