G04*
G04 #@! TF.GenerationSoftware,Altium Limited,Altium Designer,18.1.9 (240)*
G04*
G04 Layer_Physical_Order=1*
G04 Layer_Color=255*
%FSLAX44Y44*%
%MOMM*%
G71*
G01*
G75*
%ADD10C,0.2540*%
%ADD15C,1.0160*%
%ADD16C,0.7620*%
%ADD17C,1.5000*%
%ADD18R,1.5000X1.5000*%
%ADD19R,1.5000X1.5000*%
G36*
X1434957Y951957D02*
X1438978Y950880D01*
X1442823Y949287D01*
X1446427Y947206D01*
X1449729Y944672D01*
X1452672Y941729D01*
X1455206Y938427D01*
X1457287Y934823D01*
X1458880Y930978D01*
X1459957Y926957D01*
X1460500Y922831D01*
Y920750D01*
Y76200D01*
Y72456D01*
X1459766Y65006D01*
X1458306Y57663D01*
X1456132Y50498D01*
X1453267Y43581D01*
X1449738Y36978D01*
X1445578Y30753D01*
X1440829Y24966D01*
X1435535Y19671D01*
X1429747Y14922D01*
X1423522Y10762D01*
X1416919Y7233D01*
X1410002Y4368D01*
X1402837Y2194D01*
X1395494Y734D01*
X1388044Y0D01*
X72456D01*
X65006Y734D01*
X57663Y2194D01*
X50498Y4368D01*
X43581Y7233D01*
X36978Y10762D01*
X30753Y14922D01*
X24966Y19671D01*
X19671Y24966D01*
X14922Y30753D01*
X10762Y36978D01*
X7233Y43581D01*
X4368Y50498D01*
X2194Y57663D01*
X734Y65006D01*
X0Y72456D01*
Y76200D01*
Y920750D01*
Y922831D01*
X543Y926957D01*
X1620Y930978D01*
X3213Y934823D01*
X5294Y938427D01*
X7828Y941729D01*
X10771Y944672D01*
X14073Y947206D01*
X17677Y949287D01*
X21522Y950880D01*
X25543Y951957D01*
X29669Y952500D01*
X351331D01*
X355457Y951957D01*
X359478Y950880D01*
X363323Y949287D01*
X366927Y947206D01*
X370229Y944672D01*
X373172Y941729D01*
X375706Y938427D01*
X377787Y934823D01*
X379380Y930978D01*
X380457Y926957D01*
X381000Y922831D01*
Y920750D01*
X381000D01*
X381000Y349250D01*
X381068Y347173D01*
X381610Y343056D01*
X382685Y339044D01*
X384274Y335207D01*
X386351Y331611D01*
X388879Y328316D01*
X391816Y325379D01*
X395111Y322851D01*
X398707Y320774D01*
X402544Y319185D01*
X406556Y318110D01*
X410673Y317568D01*
X412750Y317500D01*
X1048766D01*
X1050843Y317568D01*
X1054960Y318110D01*
X1058972Y319185D01*
X1062809Y320774D01*
X1066405Y322851D01*
X1069700Y325379D01*
X1072637Y328316D01*
X1075165Y331611D01*
X1077242Y335207D01*
X1078831Y339044D01*
X1079906Y343056D01*
X1080448Y347173D01*
X1080516Y349250D01*
Y920750D01*
Y922831D01*
X1081059Y926957D01*
X1082136Y930978D01*
X1083729Y934823D01*
X1085810Y938427D01*
X1088344Y941729D01*
X1091287Y944672D01*
X1094589Y947206D01*
X1098193Y949287D01*
X1102038Y950880D01*
X1106059Y951957D01*
X1110185Y952500D01*
X1430831D01*
X1434957Y951957D01*
D02*
G37*
%LPC*%
G36*
X1412628Y901580D02*
X1406398D01*
Y895350D01*
X1412628D01*
Y901580D01*
D02*
G37*
G36*
X1229240D02*
X1223010D01*
Y895350D01*
X1229240D01*
Y901580D01*
D02*
G37*
G36*
X1215390D02*
X1209160D01*
Y895350D01*
X1215390D01*
Y901580D01*
D02*
G37*
G36*
X1398778D02*
X1392548D01*
Y895350D01*
X1398778D01*
Y901580D01*
D02*
G37*
G36*
X148590Y891253D02*
X145969Y890908D01*
X143527Y889896D01*
X142114Y888812D01*
X116204D01*
X114791Y889896D01*
X112349Y890908D01*
X109728Y891253D01*
X107107Y890908D01*
X104665Y889896D01*
X102567Y888287D01*
X100958Y886189D01*
X99946Y883747D01*
X99601Y881126D01*
X99946Y878505D01*
X100958Y876063D01*
X102567Y873965D01*
X104665Y872356D01*
X107107Y871344D01*
X109728Y870999D01*
X112349Y871344D01*
X114791Y872356D01*
X116204Y873440D01*
X142114D01*
X143527Y872356D01*
X145969Y871344D01*
X148590Y870999D01*
X151211Y871344D01*
X153653Y872356D01*
X155751Y873965D01*
X157360Y876063D01*
X158372Y878505D01*
X158717Y881126D01*
X158372Y883747D01*
X157360Y886189D01*
X155751Y888287D01*
X153653Y889896D01*
X151211Y890908D01*
X148590Y891253D01*
D02*
G37*
G36*
X209430Y891166D02*
X203200D01*
Y884936D01*
X209430D01*
Y891166D01*
D02*
G37*
G36*
X68968D02*
X62738D01*
Y884936D01*
X68968D01*
Y891166D01*
D02*
G37*
G36*
X55118D02*
X48888D01*
Y884936D01*
X55118D01*
Y891166D01*
D02*
G37*
G36*
X195580D02*
X189350D01*
Y884936D01*
X195580D01*
Y891166D01*
D02*
G37*
G36*
X1412628Y887730D02*
X1406398D01*
Y881500D01*
X1412628D01*
Y887730D01*
D02*
G37*
G36*
X1398778D02*
X1392548D01*
Y881500D01*
X1398778D01*
Y887730D01*
D02*
G37*
G36*
X1229240D02*
X1223010D01*
Y881500D01*
X1229240D01*
Y887730D01*
D02*
G37*
G36*
X1215390D02*
X1209160D01*
Y881500D01*
X1215390D01*
Y887730D01*
D02*
G37*
G36*
X1377188Y901667D02*
X1374567Y901322D01*
X1372125Y900310D01*
X1370027Y898701D01*
X1368418Y896603D01*
X1367406Y894161D01*
X1367061Y891540D01*
X1367406Y888919D01*
X1368418Y886477D01*
X1370027Y884379D01*
X1372125Y882770D01*
X1374567Y881758D01*
X1377188Y881413D01*
X1379809Y881758D01*
X1382251Y882770D01*
X1384349Y884379D01*
X1385958Y886477D01*
X1386970Y888919D01*
X1387315Y891540D01*
X1386970Y894161D01*
X1385958Y896603D01*
X1384349Y898701D01*
X1382251Y900310D01*
X1379809Y901322D01*
X1377188Y901667D01*
D02*
G37*
G36*
X1193800Y924626D02*
X1191811Y924364D01*
X1189957Y923596D01*
X1188365Y922375D01*
X1188365Y922375D01*
X1167545Y901554D01*
X1165779Y901322D01*
X1163337Y900310D01*
X1161239Y898701D01*
X1159630Y896603D01*
X1158618Y894161D01*
X1158273Y891540D01*
X1158618Y888919D01*
X1159630Y886477D01*
X1161239Y884379D01*
X1163337Y882770D01*
X1165779Y881758D01*
X1168400Y881413D01*
X1171021Y881758D01*
X1173463Y882770D01*
X1175561Y884379D01*
X1177170Y886477D01*
X1178182Y888919D01*
X1178414Y890685D01*
X1183177Y895447D01*
X1184253Y894728D01*
X1184018Y894161D01*
X1183673Y891540D01*
X1184018Y888919D01*
X1185030Y886477D01*
X1186639Y884379D01*
X1188737Y882770D01*
X1191179Y881758D01*
X1193800Y881413D01*
X1196421Y881758D01*
X1198863Y882770D01*
X1200961Y884379D01*
X1202570Y886477D01*
X1203582Y888919D01*
X1203927Y891540D01*
X1203582Y894161D01*
X1202570Y896603D01*
X1200961Y898701D01*
X1198863Y900310D01*
X1196421Y901322D01*
X1193800Y901667D01*
X1191179Y901322D01*
X1190612Y901087D01*
X1189893Y902163D01*
X1196983Y909254D01*
X1323204D01*
X1341774Y890685D01*
X1342006Y888919D01*
X1343018Y886477D01*
X1344627Y884379D01*
X1346725Y882770D01*
X1349167Y881758D01*
X1351788Y881413D01*
X1354409Y881758D01*
X1356851Y882770D01*
X1358949Y884379D01*
X1360558Y886477D01*
X1361570Y888919D01*
X1361915Y891540D01*
X1361570Y894161D01*
X1360558Y896603D01*
X1358949Y898701D01*
X1356851Y900310D01*
X1354409Y901322D01*
X1352643Y901554D01*
X1331823Y922375D01*
X1330231Y923596D01*
X1328377Y924364D01*
X1326388Y924626D01*
X1193800D01*
X1193800Y924626D01*
D02*
G37*
G36*
X209430Y877316D02*
X203200D01*
Y871086D01*
X209430D01*
Y877316D01*
D02*
G37*
G36*
X195580D02*
X189350D01*
Y871086D01*
X195580D01*
Y877316D01*
D02*
G37*
G36*
X68968D02*
X62738D01*
Y871086D01*
X68968D01*
Y877316D01*
D02*
G37*
G36*
X55118D02*
X48888D01*
Y871086D01*
X55118D01*
Y877316D01*
D02*
G37*
G36*
X173990Y891253D02*
X171369Y890908D01*
X168927Y889896D01*
X166829Y888287D01*
X165220Y886189D01*
X164208Y883747D01*
X163863Y881126D01*
X164208Y878505D01*
X165220Y876063D01*
X166829Y873965D01*
X168927Y872356D01*
X171369Y871344D01*
X173990Y870999D01*
X176611Y871344D01*
X179053Y872356D01*
X181151Y873965D01*
X182760Y876063D01*
X183772Y878505D01*
X184117Y881126D01*
X183772Y883747D01*
X182760Y886189D01*
X181151Y888287D01*
X179053Y889896D01*
X176611Y890908D01*
X173990Y891253D01*
D02*
G37*
G36*
X84328D02*
X81707Y890908D01*
X79265Y889896D01*
X77167Y888287D01*
X75558Y886189D01*
X74546Y883747D01*
X74201Y881126D01*
X74546Y878505D01*
X75558Y876063D01*
X77167Y873965D01*
X79265Y872356D01*
X81707Y871344D01*
X84328Y870999D01*
X86949Y871344D01*
X89391Y872356D01*
X91489Y873965D01*
X93098Y876063D01*
X94110Y878505D01*
X94455Y881126D01*
X94110Y883747D01*
X93098Y886189D01*
X91489Y888287D01*
X89391Y889896D01*
X86949Y890908D01*
X84328Y891253D01*
D02*
G37*
G36*
X1412628Y826396D02*
X1406398D01*
Y820166D01*
X1412628D01*
Y826396D01*
D02*
G37*
G36*
X1323220D02*
X1316990D01*
Y820166D01*
X1323220D01*
Y826396D01*
D02*
G37*
G36*
X1309370D02*
X1303140D01*
Y820166D01*
X1309370D01*
Y826396D01*
D02*
G37*
G36*
X1398778D02*
X1392548D01*
Y820166D01*
X1398778D01*
Y826396D01*
D02*
G37*
G36*
X242570Y815053D02*
X239949Y814708D01*
X237507Y813696D01*
X236094Y812612D01*
X116204D01*
X114791Y813696D01*
X112349Y814708D01*
X109728Y815053D01*
X107107Y814708D01*
X104665Y813696D01*
X102567Y812087D01*
X100958Y809989D01*
X99946Y807547D01*
X99601Y804926D01*
X99946Y802305D01*
X100958Y799863D01*
X102567Y797765D01*
X104665Y796156D01*
X107107Y795144D01*
X109728Y794799D01*
X112349Y795144D01*
X114791Y796156D01*
X116204Y797240D01*
X236094D01*
X237507Y796156D01*
X239949Y795144D01*
X242570Y794799D01*
X245191Y795144D01*
X247633Y796156D01*
X249731Y797765D01*
X251340Y799863D01*
X252352Y802305D01*
X252697Y804926D01*
X252352Y807547D01*
X251340Y809989D01*
X249731Y812087D01*
X247633Y813696D01*
X245191Y814708D01*
X242570Y815053D01*
D02*
G37*
G36*
X303410Y814966D02*
X297180D01*
Y808736D01*
X303410D01*
Y814966D01*
D02*
G37*
G36*
X68968D02*
X62738D01*
Y808736D01*
X68968D01*
Y814966D01*
D02*
G37*
G36*
X55118D02*
X48888D01*
Y808736D01*
X55118D01*
Y814966D01*
D02*
G37*
G36*
X289560D02*
X283330D01*
Y808736D01*
X289560D01*
Y814966D01*
D02*
G37*
G36*
X1412628Y812546D02*
X1406398D01*
Y806316D01*
X1412628D01*
Y812546D01*
D02*
G37*
G36*
X1398778D02*
X1392548D01*
Y806316D01*
X1398778D01*
Y812546D01*
D02*
G37*
G36*
X1323220D02*
X1316990D01*
Y806316D01*
X1323220D01*
Y812546D01*
D02*
G37*
G36*
X1309370D02*
X1303140D01*
Y806316D01*
X1309370D01*
Y812546D01*
D02*
G37*
G36*
X1377188Y826483D02*
X1374567Y826138D01*
X1372125Y825126D01*
X1370027Y823517D01*
X1368418Y821419D01*
X1367406Y818977D01*
X1367061Y816356D01*
X1367406Y813735D01*
X1368418Y811293D01*
X1370027Y809195D01*
X1372125Y807586D01*
X1374567Y806574D01*
X1377188Y806229D01*
X1379809Y806574D01*
X1382251Y807586D01*
X1384349Y809195D01*
X1385958Y811293D01*
X1386970Y813735D01*
X1387315Y816356D01*
X1386970Y818977D01*
X1385958Y821419D01*
X1384349Y823517D01*
X1382251Y825126D01*
X1379809Y826138D01*
X1377188Y826483D01*
D02*
G37*
G36*
X1288034Y849696D02*
X1286045Y849434D01*
X1284191Y848666D01*
X1282599Y847445D01*
X1261525Y826370D01*
X1259759Y826138D01*
X1257317Y825126D01*
X1255219Y823517D01*
X1253610Y821419D01*
X1252598Y818977D01*
X1252253Y816356D01*
X1252598Y813735D01*
X1253610Y811293D01*
X1255219Y809195D01*
X1257317Y807586D01*
X1259759Y806574D01*
X1262380Y806229D01*
X1265001Y806574D01*
X1267443Y807586D01*
X1269541Y809195D01*
X1271150Y811293D01*
X1272162Y813735D01*
X1272394Y815501D01*
X1277157Y820263D01*
X1278233Y819544D01*
X1277998Y818977D01*
X1277653Y816356D01*
X1277998Y813735D01*
X1279010Y811293D01*
X1280619Y809195D01*
X1282717Y807586D01*
X1285159Y806574D01*
X1287780Y806229D01*
X1290401Y806574D01*
X1292843Y807586D01*
X1294941Y809195D01*
X1296550Y811293D01*
X1297562Y813735D01*
X1297907Y816356D01*
X1297562Y818977D01*
X1296550Y821419D01*
X1294941Y823517D01*
X1292843Y825126D01*
X1290401Y826138D01*
X1287780Y826483D01*
X1285159Y826138D01*
X1284592Y825903D01*
X1283873Y826979D01*
X1291218Y834324D01*
X1322950D01*
X1341774Y815501D01*
X1342006Y813735D01*
X1343018Y811293D01*
X1344627Y809195D01*
X1346725Y807586D01*
X1349167Y806574D01*
X1351788Y806229D01*
X1354409Y806574D01*
X1356851Y807586D01*
X1358949Y809195D01*
X1360558Y811293D01*
X1361570Y813735D01*
X1361915Y816356D01*
X1361570Y818977D01*
X1360558Y821419D01*
X1358949Y823517D01*
X1356851Y825126D01*
X1354409Y826138D01*
X1352643Y826370D01*
X1331569Y847445D01*
X1329977Y848666D01*
X1328123Y849434D01*
X1326134Y849696D01*
X1288034D01*
X1288034Y849696D01*
D02*
G37*
G36*
X303410Y801116D02*
X297180D01*
Y794886D01*
X303410D01*
Y801116D01*
D02*
G37*
G36*
X289560D02*
X283330D01*
Y794886D01*
X289560D01*
Y801116D01*
D02*
G37*
G36*
X68968D02*
X62738D01*
Y794886D01*
X68968D01*
Y801116D01*
D02*
G37*
G36*
X55118D02*
X48888D01*
Y794886D01*
X55118D01*
Y801116D01*
D02*
G37*
G36*
X267970Y815053D02*
X265349Y814708D01*
X262907Y813696D01*
X260809Y812087D01*
X259200Y809989D01*
X258188Y807547D01*
X257843Y804926D01*
X258188Y802305D01*
X259200Y799863D01*
X260809Y797765D01*
X262907Y796156D01*
X265349Y795144D01*
X267970Y794799D01*
X270591Y795144D01*
X273033Y796156D01*
X275131Y797765D01*
X276740Y799863D01*
X277752Y802305D01*
X278097Y804926D01*
X277752Y807547D01*
X276740Y809989D01*
X275131Y812087D01*
X273033Y813696D01*
X270591Y814708D01*
X267970Y815053D01*
D02*
G37*
G36*
X84328D02*
X81707Y814708D01*
X79265Y813696D01*
X77167Y812087D01*
X75558Y809989D01*
X74546Y807547D01*
X74201Y804926D01*
X74546Y802305D01*
X75558Y799863D01*
X77167Y797765D01*
X79265Y796156D01*
X81707Y795144D01*
X84328Y794799D01*
X86949Y795144D01*
X89391Y796156D01*
X91489Y797765D01*
X93098Y799863D01*
X94110Y802305D01*
X94455Y804926D01*
X94110Y807547D01*
X93098Y809989D01*
X91489Y812087D01*
X89391Y813696D01*
X86949Y814708D01*
X84328Y815053D01*
D02*
G37*
G36*
X1412628Y750196D02*
X1406398D01*
Y743966D01*
X1412628D01*
Y750196D01*
D02*
G37*
G36*
X1229240D02*
X1223010D01*
Y743966D01*
X1229240D01*
Y750196D01*
D02*
G37*
G36*
X1215390D02*
X1209160D01*
Y743966D01*
X1215390D01*
Y750196D01*
D02*
G37*
G36*
X1398778D02*
X1392548D01*
Y743966D01*
X1398778D01*
Y750196D01*
D02*
G37*
G36*
X148590Y738853D02*
X145969Y738508D01*
X143527Y737496D01*
X142114Y736412D01*
X116204D01*
X114791Y737496D01*
X112349Y738508D01*
X109728Y738853D01*
X107107Y738508D01*
X104665Y737496D01*
X102567Y735887D01*
X100958Y733789D01*
X99946Y731347D01*
X99601Y728726D01*
X99946Y726105D01*
X100958Y723663D01*
X102567Y721565D01*
X104665Y719956D01*
X107107Y718944D01*
X109728Y718599D01*
X112349Y718944D01*
X114791Y719956D01*
X116204Y721040D01*
X142114D01*
X143527Y719956D01*
X145969Y718944D01*
X148590Y718599D01*
X151211Y718944D01*
X153653Y719956D01*
X155751Y721565D01*
X157360Y723663D01*
X158372Y726105D01*
X158717Y728726D01*
X158372Y731347D01*
X157360Y733789D01*
X155751Y735887D01*
X153653Y737496D01*
X151211Y738508D01*
X148590Y738853D01*
D02*
G37*
G36*
X209430Y738766D02*
X203200D01*
Y732536D01*
X209430D01*
Y738766D01*
D02*
G37*
G36*
X68968D02*
X62738D01*
Y732536D01*
X68968D01*
Y738766D01*
D02*
G37*
G36*
X55118D02*
X48888D01*
Y732536D01*
X55118D01*
Y738766D01*
D02*
G37*
G36*
X195580D02*
X189350D01*
Y732536D01*
X195580D01*
Y738766D01*
D02*
G37*
G36*
X1412628Y736346D02*
X1406398D01*
Y730116D01*
X1412628D01*
Y736346D01*
D02*
G37*
G36*
X1398778D02*
X1392548D01*
Y730116D01*
X1398778D01*
Y736346D01*
D02*
G37*
G36*
X1229240D02*
X1223010D01*
Y730116D01*
X1229240D01*
Y736346D01*
D02*
G37*
G36*
X1215390D02*
X1209160D01*
Y730116D01*
X1215390D01*
Y736346D01*
D02*
G37*
G36*
X1377188Y750283D02*
X1374567Y749938D01*
X1372125Y748926D01*
X1370027Y747317D01*
X1368418Y745219D01*
X1367406Y742777D01*
X1367061Y740156D01*
X1367406Y737535D01*
X1368418Y735093D01*
X1370027Y732995D01*
X1372125Y731386D01*
X1374567Y730374D01*
X1377188Y730029D01*
X1379809Y730374D01*
X1382251Y731386D01*
X1384349Y732995D01*
X1385958Y735093D01*
X1386970Y737535D01*
X1387315Y740156D01*
X1386970Y742777D01*
X1385958Y745219D01*
X1384349Y747317D01*
X1382251Y748926D01*
X1379809Y749938D01*
X1377188Y750283D01*
D02*
G37*
G36*
X1194054Y773496D02*
X1192065Y773234D01*
X1190211Y772466D01*
X1188619Y771245D01*
X1167545Y750170D01*
X1165779Y749938D01*
X1163337Y748926D01*
X1161239Y747317D01*
X1159630Y745219D01*
X1158618Y742777D01*
X1158273Y740156D01*
X1158618Y737535D01*
X1159630Y735093D01*
X1161239Y732995D01*
X1163337Y731386D01*
X1165779Y730374D01*
X1168400Y730029D01*
X1171021Y730374D01*
X1173463Y731386D01*
X1175561Y732995D01*
X1177170Y735093D01*
X1178182Y737535D01*
X1178414Y739301D01*
X1183177Y744063D01*
X1184253Y743344D01*
X1184018Y742777D01*
X1183673Y740156D01*
X1184018Y737535D01*
X1185030Y735093D01*
X1186639Y732995D01*
X1188737Y731386D01*
X1191179Y730374D01*
X1193800Y730029D01*
X1196421Y730374D01*
X1198863Y731386D01*
X1200961Y732995D01*
X1202570Y735093D01*
X1203582Y737535D01*
X1203927Y740156D01*
X1203582Y742777D01*
X1202570Y745219D01*
X1200961Y747317D01*
X1198863Y748926D01*
X1196421Y749938D01*
X1193800Y750283D01*
X1191179Y749938D01*
X1190612Y749703D01*
X1189893Y750779D01*
X1197238Y758124D01*
X1322950D01*
X1341774Y739301D01*
X1342006Y737535D01*
X1343018Y735093D01*
X1344627Y732995D01*
X1346725Y731386D01*
X1349167Y730374D01*
X1351788Y730029D01*
X1354409Y730374D01*
X1356851Y731386D01*
X1358949Y732995D01*
X1360558Y735093D01*
X1361570Y737535D01*
X1361915Y740156D01*
X1361570Y742777D01*
X1360558Y745219D01*
X1358949Y747317D01*
X1356851Y748926D01*
X1354409Y749938D01*
X1352643Y750170D01*
X1331569Y771245D01*
X1329977Y772466D01*
X1328123Y773234D01*
X1326134Y773496D01*
X1194054D01*
X1194054Y773496D01*
D02*
G37*
G36*
X209430Y724916D02*
X203200D01*
Y718686D01*
X209430D01*
Y724916D01*
D02*
G37*
G36*
X195580D02*
X189350D01*
Y718686D01*
X195580D01*
Y724916D01*
D02*
G37*
G36*
X68968D02*
X62738D01*
Y718686D01*
X68968D01*
Y724916D01*
D02*
G37*
G36*
X55118D02*
X48888D01*
Y718686D01*
X55118D01*
Y724916D01*
D02*
G37*
G36*
X173990Y738853D02*
X171369Y738508D01*
X168927Y737496D01*
X166829Y735887D01*
X165220Y733789D01*
X164208Y731347D01*
X163863Y728726D01*
X164208Y726105D01*
X165220Y723663D01*
X166829Y721565D01*
X168927Y719956D01*
X171369Y718944D01*
X173990Y718599D01*
X176611Y718944D01*
X179053Y719956D01*
X181151Y721565D01*
X182760Y723663D01*
X183772Y726105D01*
X184117Y728726D01*
X183772Y731347D01*
X182760Y733789D01*
X181151Y735887D01*
X179053Y737496D01*
X176611Y738508D01*
X173990Y738853D01*
D02*
G37*
G36*
X84328D02*
X81707Y738508D01*
X79265Y737496D01*
X77167Y735887D01*
X75558Y733789D01*
X74546Y731347D01*
X74201Y728726D01*
X74546Y726105D01*
X75558Y723663D01*
X77167Y721565D01*
X79265Y719956D01*
X81707Y718944D01*
X84328Y718599D01*
X86949Y718944D01*
X89391Y719956D01*
X91489Y721565D01*
X93098Y723663D01*
X94110Y726105D01*
X94455Y728726D01*
X94110Y731347D01*
X93098Y733789D01*
X91489Y735887D01*
X89391Y737496D01*
X86949Y738508D01*
X84328Y738853D01*
D02*
G37*
G36*
X1323220Y673996D02*
X1316990D01*
Y667766D01*
X1323220D01*
Y673996D01*
D02*
G37*
G36*
X1309370D02*
X1303140D01*
Y667766D01*
X1309370D01*
Y673996D01*
D02*
G37*
G36*
X242570Y662653D02*
X239949Y662308D01*
X237507Y661296D01*
X236094Y660212D01*
X116204D01*
X114791Y661296D01*
X112349Y662308D01*
X109728Y662653D01*
X107107Y662308D01*
X104665Y661296D01*
X102567Y659687D01*
X100958Y657589D01*
X99946Y655147D01*
X99601Y652526D01*
X99946Y649905D01*
X100958Y647463D01*
X102567Y645365D01*
X104665Y643756D01*
X107107Y642744D01*
X109728Y642399D01*
X112349Y642744D01*
X114791Y643756D01*
X116204Y644840D01*
X236094D01*
X237507Y643756D01*
X239949Y642744D01*
X242570Y642399D01*
X245191Y642744D01*
X247633Y643756D01*
X249731Y645365D01*
X251340Y647463D01*
X252352Y649905D01*
X252697Y652526D01*
X252352Y655147D01*
X251340Y657589D01*
X249731Y659687D01*
X247633Y661296D01*
X245191Y662308D01*
X242570Y662653D01*
D02*
G37*
G36*
X303410Y662566D02*
X297180D01*
Y656336D01*
X303410D01*
Y662566D01*
D02*
G37*
G36*
X68968D02*
X62738D01*
Y656336D01*
X68968D01*
Y662566D01*
D02*
G37*
G36*
X55118D02*
X48888D01*
Y656336D01*
X55118D01*
Y662566D01*
D02*
G37*
G36*
X289560D02*
X283330D01*
Y656336D01*
X289560D01*
Y662566D01*
D02*
G37*
G36*
X1412628Y673996D02*
X1392548D01*
Y653916D01*
X1412628D01*
Y673996D01*
D02*
G37*
G36*
X1323220Y660146D02*
X1316990D01*
Y653916D01*
X1323220D01*
Y660146D01*
D02*
G37*
G36*
X1309370D02*
X1303140D01*
Y653916D01*
X1309370D01*
Y660146D01*
D02*
G37*
G36*
X1377188Y674083D02*
X1374567Y673738D01*
X1372125Y672726D01*
X1370027Y671117D01*
X1368418Y669019D01*
X1367406Y666577D01*
X1367061Y663956D01*
X1367406Y661335D01*
X1368418Y658893D01*
X1370027Y656795D01*
X1372125Y655186D01*
X1374567Y654174D01*
X1377188Y653829D01*
X1379809Y654174D01*
X1382251Y655186D01*
X1384349Y656795D01*
X1385958Y658893D01*
X1386970Y661335D01*
X1387315Y663956D01*
X1386970Y666577D01*
X1385958Y669019D01*
X1384349Y671117D01*
X1382251Y672726D01*
X1379809Y673738D01*
X1377188Y674083D01*
D02*
G37*
G36*
X1288034Y697296D02*
X1286045Y697034D01*
X1284191Y696266D01*
X1282599Y695045D01*
X1261525Y673970D01*
X1259759Y673738D01*
X1257317Y672726D01*
X1255219Y671117D01*
X1253610Y669019D01*
X1252598Y666577D01*
X1252253Y663956D01*
X1252598Y661335D01*
X1253610Y658893D01*
X1255219Y656795D01*
X1257317Y655186D01*
X1259759Y654174D01*
X1262380Y653829D01*
X1265001Y654174D01*
X1267443Y655186D01*
X1269541Y656795D01*
X1271150Y658893D01*
X1272162Y661335D01*
X1272394Y663101D01*
X1277157Y667863D01*
X1278233Y667144D01*
X1277998Y666577D01*
X1277653Y663956D01*
X1277998Y661335D01*
X1279010Y658893D01*
X1280619Y656795D01*
X1282717Y655186D01*
X1285159Y654174D01*
X1287780Y653829D01*
X1290401Y654174D01*
X1292843Y655186D01*
X1294941Y656795D01*
X1296550Y658893D01*
X1297562Y661335D01*
X1297907Y663956D01*
X1297562Y666577D01*
X1296550Y669019D01*
X1294941Y671117D01*
X1292843Y672726D01*
X1290401Y673738D01*
X1287780Y674083D01*
X1285159Y673738D01*
X1284592Y673503D01*
X1283873Y674579D01*
X1291218Y681924D01*
X1322950D01*
X1341774Y663101D01*
X1342006Y661335D01*
X1343018Y658893D01*
X1344627Y656795D01*
X1346725Y655186D01*
X1349167Y654174D01*
X1351788Y653829D01*
X1354409Y654174D01*
X1356851Y655186D01*
X1358949Y656795D01*
X1360558Y658893D01*
X1361570Y661335D01*
X1361915Y663956D01*
X1361570Y666577D01*
X1360558Y669019D01*
X1358949Y671117D01*
X1356851Y672726D01*
X1354409Y673738D01*
X1352643Y673970D01*
X1331569Y695045D01*
X1329977Y696266D01*
X1328123Y697034D01*
X1326134Y697296D01*
X1288034D01*
X1288034Y697296D01*
D02*
G37*
G36*
X303410Y648716D02*
X297180D01*
Y642486D01*
X303410D01*
Y648716D01*
D02*
G37*
G36*
X289560D02*
X283330D01*
Y642486D01*
X289560D01*
Y648716D01*
D02*
G37*
G36*
X68968D02*
X62738D01*
Y642486D01*
X68968D01*
Y648716D01*
D02*
G37*
G36*
X55118D02*
X48888D01*
Y642486D01*
X55118D01*
Y648716D01*
D02*
G37*
G36*
X267970Y662653D02*
X265349Y662308D01*
X262907Y661296D01*
X260809Y659687D01*
X259200Y657589D01*
X258188Y655147D01*
X257843Y652526D01*
X258188Y649905D01*
X259200Y647463D01*
X260809Y645365D01*
X262907Y643756D01*
X265349Y642744D01*
X267970Y642399D01*
X270591Y642744D01*
X273033Y643756D01*
X275131Y645365D01*
X276740Y647463D01*
X277752Y649905D01*
X278097Y652526D01*
X277752Y655147D01*
X276740Y657589D01*
X275131Y659687D01*
X273033Y661296D01*
X270591Y662308D01*
X267970Y662653D01*
D02*
G37*
G36*
X84328D02*
X81707Y662308D01*
X79265Y661296D01*
X77167Y659687D01*
X75558Y657589D01*
X74546Y655147D01*
X74201Y652526D01*
X74546Y649905D01*
X75558Y647463D01*
X77167Y645365D01*
X79265Y643756D01*
X81707Y642744D01*
X84328Y642399D01*
X86949Y642744D01*
X89391Y643756D01*
X91489Y645365D01*
X93098Y647463D01*
X94110Y649905D01*
X94455Y652526D01*
X94110Y655147D01*
X93098Y657589D01*
X91489Y659687D01*
X89391Y661296D01*
X86949Y662308D01*
X84328Y662653D01*
D02*
G37*
G36*
X1412628Y597796D02*
X1406398D01*
Y591566D01*
X1412628D01*
Y597796D01*
D02*
G37*
G36*
X1229240D02*
X1223010D01*
Y591566D01*
X1229240D01*
Y597796D01*
D02*
G37*
G36*
X1215390D02*
X1209160D01*
Y591566D01*
X1215390D01*
Y597796D01*
D02*
G37*
G36*
X1398778D02*
X1392548D01*
Y591566D01*
X1398778D01*
Y597796D01*
D02*
G37*
G36*
X148590Y586453D02*
X145969Y586108D01*
X143527Y585096D01*
X142114Y584012D01*
X116204D01*
X114791Y585096D01*
X112349Y586108D01*
X109728Y586453D01*
X107107Y586108D01*
X104665Y585096D01*
X102567Y583487D01*
X100958Y581389D01*
X99946Y578947D01*
X99601Y576326D01*
X99946Y573705D01*
X100958Y571263D01*
X102567Y569165D01*
X104665Y567556D01*
X107107Y566544D01*
X109728Y566199D01*
X112349Y566544D01*
X114791Y567556D01*
X116204Y568640D01*
X142114D01*
X143527Y567556D01*
X145969Y566544D01*
X148590Y566199D01*
X151211Y566544D01*
X153653Y567556D01*
X155751Y569165D01*
X157360Y571263D01*
X158372Y573705D01*
X158717Y576326D01*
X158372Y578947D01*
X157360Y581389D01*
X155751Y583487D01*
X153653Y585096D01*
X151211Y586108D01*
X148590Y586453D01*
D02*
G37*
G36*
X209430Y586366D02*
X203200D01*
Y580136D01*
X209430D01*
Y586366D01*
D02*
G37*
G36*
X68968D02*
X62738D01*
Y580136D01*
X68968D01*
Y586366D01*
D02*
G37*
G36*
X55118D02*
X48888D01*
Y580136D01*
X55118D01*
Y586366D01*
D02*
G37*
G36*
X195580D02*
X189350D01*
Y580136D01*
X195580D01*
Y586366D01*
D02*
G37*
G36*
X1412628Y583946D02*
X1406398D01*
Y577716D01*
X1412628D01*
Y583946D01*
D02*
G37*
G36*
X1398778D02*
X1392548D01*
Y577716D01*
X1398778D01*
Y583946D01*
D02*
G37*
G36*
X1229240D02*
X1223010D01*
Y577716D01*
X1229240D01*
Y583946D01*
D02*
G37*
G36*
X1215390D02*
X1209160D01*
Y577716D01*
X1215390D01*
Y583946D01*
D02*
G37*
G36*
X1377188Y597883D02*
X1374567Y597538D01*
X1372125Y596526D01*
X1370027Y594917D01*
X1368418Y592819D01*
X1367406Y590377D01*
X1367061Y587756D01*
X1367406Y585135D01*
X1368418Y582693D01*
X1370027Y580595D01*
X1372125Y578986D01*
X1374567Y577974D01*
X1377188Y577629D01*
X1379809Y577974D01*
X1382251Y578986D01*
X1384349Y580595D01*
X1385958Y582693D01*
X1386970Y585135D01*
X1387315Y587756D01*
X1386970Y590377D01*
X1385958Y592819D01*
X1384349Y594917D01*
X1382251Y596526D01*
X1379809Y597538D01*
X1377188Y597883D01*
D02*
G37*
G36*
X1194054Y621096D02*
X1192065Y620834D01*
X1190211Y620066D01*
X1188619Y618845D01*
X1167545Y597770D01*
X1165779Y597538D01*
X1163337Y596526D01*
X1161239Y594917D01*
X1159630Y592819D01*
X1158618Y590377D01*
X1158273Y587756D01*
X1158618Y585135D01*
X1159630Y582693D01*
X1161239Y580595D01*
X1163337Y578986D01*
X1165779Y577974D01*
X1168400Y577629D01*
X1171021Y577974D01*
X1173463Y578986D01*
X1175561Y580595D01*
X1177170Y582693D01*
X1178182Y585135D01*
X1178414Y586901D01*
X1183177Y591663D01*
X1184253Y590944D01*
X1184018Y590377D01*
X1183673Y587756D01*
X1184018Y585135D01*
X1185030Y582693D01*
X1186639Y580595D01*
X1188737Y578986D01*
X1191179Y577974D01*
X1193800Y577629D01*
X1196421Y577974D01*
X1198863Y578986D01*
X1200961Y580595D01*
X1202570Y582693D01*
X1203582Y585135D01*
X1203927Y587756D01*
X1203582Y590377D01*
X1202570Y592819D01*
X1200961Y594917D01*
X1198863Y596526D01*
X1196421Y597538D01*
X1193800Y597883D01*
X1191179Y597538D01*
X1190612Y597303D01*
X1189893Y598379D01*
X1197238Y605724D01*
X1322950D01*
X1341774Y586901D01*
X1342006Y585135D01*
X1343018Y582693D01*
X1344627Y580595D01*
X1346725Y578986D01*
X1349167Y577974D01*
X1351788Y577629D01*
X1354409Y577974D01*
X1356851Y578986D01*
X1358949Y580595D01*
X1360558Y582693D01*
X1361570Y585135D01*
X1361915Y587756D01*
X1361570Y590377D01*
X1360558Y592819D01*
X1358949Y594917D01*
X1356851Y596526D01*
X1354409Y597538D01*
X1352643Y597770D01*
X1331569Y618845D01*
X1329977Y620066D01*
X1328123Y620834D01*
X1326134Y621096D01*
X1194054D01*
X1194054Y621096D01*
D02*
G37*
G36*
X209430Y572516D02*
X203200D01*
Y566286D01*
X209430D01*
Y572516D01*
D02*
G37*
G36*
X195580D02*
X189350D01*
Y566286D01*
X195580D01*
Y572516D01*
D02*
G37*
G36*
X68968D02*
X62738D01*
Y566286D01*
X68968D01*
Y572516D01*
D02*
G37*
G36*
X55118D02*
X48888D01*
Y566286D01*
X55118D01*
Y572516D01*
D02*
G37*
G36*
X173990Y586453D02*
X171369Y586108D01*
X168927Y585096D01*
X166829Y583487D01*
X165220Y581389D01*
X164208Y578947D01*
X163863Y576326D01*
X164208Y573705D01*
X165220Y571263D01*
X166829Y569165D01*
X168927Y567556D01*
X171369Y566544D01*
X173990Y566199D01*
X176611Y566544D01*
X179053Y567556D01*
X181151Y569165D01*
X182760Y571263D01*
X183772Y573705D01*
X184117Y576326D01*
X183772Y578947D01*
X182760Y581389D01*
X181151Y583487D01*
X179053Y585096D01*
X176611Y586108D01*
X173990Y586453D01*
D02*
G37*
G36*
X84328D02*
X81707Y586108D01*
X79265Y585096D01*
X77167Y583487D01*
X75558Y581389D01*
X74546Y578947D01*
X74201Y576326D01*
X74546Y573705D01*
X75558Y571263D01*
X77167Y569165D01*
X79265Y567556D01*
X81707Y566544D01*
X84328Y566199D01*
X86949Y566544D01*
X89391Y567556D01*
X91489Y569165D01*
X93098Y571263D01*
X94110Y573705D01*
X94455Y576326D01*
X94110Y578947D01*
X93098Y581389D01*
X91489Y583487D01*
X89391Y585096D01*
X86949Y586108D01*
X84328Y586453D01*
D02*
G37*
G36*
X1412628Y521596D02*
X1406398D01*
Y515366D01*
X1412628D01*
Y521596D01*
D02*
G37*
G36*
X1323220D02*
X1316990D01*
Y515366D01*
X1323220D01*
Y521596D01*
D02*
G37*
G36*
X1309370D02*
X1303140D01*
Y515366D01*
X1309370D01*
Y521596D01*
D02*
G37*
G36*
X1398778D02*
X1392548D01*
Y515366D01*
X1398778D01*
Y521596D01*
D02*
G37*
G36*
X242570Y510253D02*
X239949Y509908D01*
X237507Y508896D01*
X236094Y507812D01*
X116204D01*
X114791Y508896D01*
X112349Y509908D01*
X109728Y510253D01*
X107107Y509908D01*
X104665Y508896D01*
X102567Y507287D01*
X100958Y505189D01*
X99946Y502747D01*
X99601Y500126D01*
X99946Y497505D01*
X100958Y495063D01*
X102567Y492965D01*
X104665Y491356D01*
X107107Y490344D01*
X109728Y489999D01*
X112349Y490344D01*
X114791Y491356D01*
X116204Y492440D01*
X236094D01*
X237507Y491356D01*
X239949Y490344D01*
X242570Y489999D01*
X245191Y490344D01*
X247633Y491356D01*
X249731Y492965D01*
X251340Y495063D01*
X252352Y497505D01*
X252697Y500126D01*
X252352Y502747D01*
X251340Y505189D01*
X249731Y507287D01*
X247633Y508896D01*
X245191Y509908D01*
X242570Y510253D01*
D02*
G37*
G36*
X303410Y510166D02*
X297180D01*
Y503936D01*
X303410D01*
Y510166D01*
D02*
G37*
G36*
X68968D02*
X62738D01*
Y503936D01*
X68968D01*
Y510166D01*
D02*
G37*
G36*
X55118D02*
X48888D01*
Y503936D01*
X55118D01*
Y510166D01*
D02*
G37*
G36*
X289560D02*
X283330D01*
Y503936D01*
X289560D01*
Y510166D01*
D02*
G37*
G36*
X1412628Y507746D02*
X1406398D01*
Y501516D01*
X1412628D01*
Y507746D01*
D02*
G37*
G36*
X1398778D02*
X1392548D01*
Y501516D01*
X1398778D01*
Y507746D01*
D02*
G37*
G36*
X1323220D02*
X1316990D01*
Y501516D01*
X1323220D01*
Y507746D01*
D02*
G37*
G36*
X1309370D02*
X1303140D01*
Y501516D01*
X1309370D01*
Y507746D01*
D02*
G37*
G36*
X1377188Y521683D02*
X1374567Y521338D01*
X1372125Y520326D01*
X1370027Y518717D01*
X1368418Y516619D01*
X1367406Y514177D01*
X1367061Y511556D01*
X1367406Y508935D01*
X1368418Y506493D01*
X1370027Y504395D01*
X1372125Y502786D01*
X1374567Y501774D01*
X1377188Y501429D01*
X1379809Y501774D01*
X1382251Y502786D01*
X1384349Y504395D01*
X1385958Y506493D01*
X1386970Y508935D01*
X1387315Y511556D01*
X1386970Y514177D01*
X1385958Y516619D01*
X1384349Y518717D01*
X1382251Y520326D01*
X1379809Y521338D01*
X1377188Y521683D01*
D02*
G37*
G36*
X1288034Y544896D02*
X1286045Y544634D01*
X1284191Y543866D01*
X1282599Y542645D01*
X1261525Y521570D01*
X1259759Y521338D01*
X1257317Y520326D01*
X1255219Y518717D01*
X1253610Y516619D01*
X1252598Y514177D01*
X1252253Y511556D01*
X1252598Y508935D01*
X1253610Y506493D01*
X1255219Y504395D01*
X1257317Y502786D01*
X1259759Y501774D01*
X1262380Y501429D01*
X1265001Y501774D01*
X1267443Y502786D01*
X1269541Y504395D01*
X1271150Y506493D01*
X1272162Y508935D01*
X1272394Y510701D01*
X1277157Y515463D01*
X1278233Y514744D01*
X1277998Y514177D01*
X1277653Y511556D01*
X1277998Y508935D01*
X1279010Y506493D01*
X1280619Y504395D01*
X1282717Y502786D01*
X1285159Y501774D01*
X1287780Y501429D01*
X1290401Y501774D01*
X1292843Y502786D01*
X1294941Y504395D01*
X1296550Y506493D01*
X1297562Y508935D01*
X1297907Y511556D01*
X1297562Y514177D01*
X1296550Y516619D01*
X1294941Y518717D01*
X1292843Y520326D01*
X1290401Y521338D01*
X1287780Y521683D01*
X1285159Y521338D01*
X1284592Y521103D01*
X1283873Y522179D01*
X1291218Y529524D01*
X1322950D01*
X1341774Y510701D01*
X1342006Y508935D01*
X1343018Y506493D01*
X1344627Y504395D01*
X1346725Y502786D01*
X1349167Y501774D01*
X1351788Y501429D01*
X1354409Y501774D01*
X1356851Y502786D01*
X1358949Y504395D01*
X1360558Y506493D01*
X1361570Y508935D01*
X1361915Y511556D01*
X1361570Y514177D01*
X1360558Y516619D01*
X1358949Y518717D01*
X1356851Y520326D01*
X1354409Y521338D01*
X1352643Y521570D01*
X1331569Y542645D01*
X1329977Y543866D01*
X1328123Y544634D01*
X1326134Y544896D01*
X1288034D01*
X1288034Y544896D01*
D02*
G37*
G36*
X303410Y496316D02*
X297180D01*
Y490086D01*
X303410D01*
Y496316D01*
D02*
G37*
G36*
X289560D02*
X283330D01*
Y490086D01*
X289560D01*
Y496316D01*
D02*
G37*
G36*
X68968D02*
X62738D01*
Y490086D01*
X68968D01*
Y496316D01*
D02*
G37*
G36*
X55118D02*
X48888D01*
Y490086D01*
X55118D01*
Y496316D01*
D02*
G37*
G36*
X267970Y510253D02*
X265349Y509908D01*
X262907Y508896D01*
X260809Y507287D01*
X259200Y505189D01*
X258188Y502747D01*
X257843Y500126D01*
X258188Y497505D01*
X259200Y495063D01*
X260809Y492965D01*
X262907Y491356D01*
X265349Y490344D01*
X267970Y489999D01*
X270591Y490344D01*
X273033Y491356D01*
X275131Y492965D01*
X276740Y495063D01*
X277752Y497505D01*
X278097Y500126D01*
X277752Y502747D01*
X276740Y505189D01*
X275131Y507287D01*
X273033Y508896D01*
X270591Y509908D01*
X267970Y510253D01*
D02*
G37*
G36*
X84328D02*
X81707Y509908D01*
X79265Y508896D01*
X77167Y507287D01*
X75558Y505189D01*
X74546Y502747D01*
X74201Y500126D01*
X74546Y497505D01*
X75558Y495063D01*
X77167Y492965D01*
X79265Y491356D01*
X81707Y490344D01*
X84328Y489999D01*
X86949Y490344D01*
X89391Y491356D01*
X91489Y492965D01*
X93098Y495063D01*
X94110Y497505D01*
X94455Y500126D01*
X94110Y502747D01*
X93098Y505189D01*
X91489Y507287D01*
X89391Y508896D01*
X86949Y509908D01*
X84328Y510253D01*
D02*
G37*
G36*
X1412628Y445396D02*
X1406398D01*
Y439166D01*
X1412628D01*
Y445396D01*
D02*
G37*
G36*
X1229240D02*
X1223010D01*
Y439166D01*
X1229240D01*
Y445396D01*
D02*
G37*
G36*
X1215390D02*
X1209160D01*
Y439166D01*
X1215390D01*
Y445396D01*
D02*
G37*
G36*
X1398778D02*
X1392548D01*
Y439166D01*
X1398778D01*
Y445396D01*
D02*
G37*
G36*
X148590Y434053D02*
X145969Y433708D01*
X143527Y432696D01*
X142114Y431612D01*
X116204D01*
X114791Y432696D01*
X112349Y433708D01*
X109728Y434053D01*
X107107Y433708D01*
X104665Y432696D01*
X102567Y431087D01*
X100958Y428989D01*
X99946Y426547D01*
X99601Y423926D01*
X99946Y421305D01*
X100958Y418863D01*
X102567Y416765D01*
X104665Y415156D01*
X107107Y414144D01*
X109728Y413799D01*
X112349Y414144D01*
X114791Y415156D01*
X116204Y416240D01*
X142114D01*
X143527Y415156D01*
X145969Y414144D01*
X148590Y413799D01*
X151211Y414144D01*
X153653Y415156D01*
X155751Y416765D01*
X157360Y418863D01*
X158372Y421305D01*
X158717Y423926D01*
X158372Y426547D01*
X157360Y428989D01*
X155751Y431087D01*
X153653Y432696D01*
X151211Y433708D01*
X148590Y434053D01*
D02*
G37*
G36*
X209430Y433966D02*
X203200D01*
Y427736D01*
X209430D01*
Y433966D01*
D02*
G37*
G36*
X68968D02*
X62738D01*
Y427736D01*
X68968D01*
Y433966D01*
D02*
G37*
G36*
X55118D02*
X48888D01*
Y427736D01*
X55118D01*
Y433966D01*
D02*
G37*
G36*
X195580D02*
X189350D01*
Y427736D01*
X195580D01*
Y433966D01*
D02*
G37*
G36*
X1412628Y431546D02*
X1406398D01*
Y425316D01*
X1412628D01*
Y431546D01*
D02*
G37*
G36*
X1398778D02*
X1392548D01*
Y425316D01*
X1398778D01*
Y431546D01*
D02*
G37*
G36*
X1229240D02*
X1223010D01*
Y425316D01*
X1229240D01*
Y431546D01*
D02*
G37*
G36*
X1215390D02*
X1209160D01*
Y425316D01*
X1215390D01*
Y431546D01*
D02*
G37*
G36*
X1377188Y445483D02*
X1374567Y445138D01*
X1372125Y444126D01*
X1370027Y442517D01*
X1368418Y440419D01*
X1367406Y437977D01*
X1367061Y435356D01*
X1367406Y432735D01*
X1368418Y430293D01*
X1370027Y428195D01*
X1372125Y426586D01*
X1374567Y425574D01*
X1377188Y425229D01*
X1379809Y425574D01*
X1382251Y426586D01*
X1384349Y428195D01*
X1385958Y430293D01*
X1386970Y432735D01*
X1387315Y435356D01*
X1386970Y437977D01*
X1385958Y440419D01*
X1384349Y442517D01*
X1382251Y444126D01*
X1379809Y445138D01*
X1377188Y445483D01*
D02*
G37*
G36*
X1194054Y468696D02*
X1192065Y468434D01*
X1190211Y467666D01*
X1188619Y466445D01*
X1167545Y445370D01*
X1165779Y445138D01*
X1163337Y444126D01*
X1161239Y442517D01*
X1159630Y440419D01*
X1158618Y437977D01*
X1158273Y435356D01*
X1158618Y432735D01*
X1159630Y430293D01*
X1161239Y428195D01*
X1163337Y426586D01*
X1165779Y425574D01*
X1168400Y425229D01*
X1171021Y425574D01*
X1173463Y426586D01*
X1175561Y428195D01*
X1177170Y430293D01*
X1178182Y432735D01*
X1178414Y434501D01*
X1183177Y439263D01*
X1184253Y438544D01*
X1184018Y437977D01*
X1183673Y435356D01*
X1184018Y432735D01*
X1185030Y430293D01*
X1186639Y428195D01*
X1188737Y426586D01*
X1191179Y425574D01*
X1193800Y425229D01*
X1196421Y425574D01*
X1198863Y426586D01*
X1200961Y428195D01*
X1202570Y430293D01*
X1203582Y432735D01*
X1203927Y435356D01*
X1203582Y437977D01*
X1202570Y440419D01*
X1200961Y442517D01*
X1198863Y444126D01*
X1196421Y445138D01*
X1193800Y445483D01*
X1191179Y445138D01*
X1190612Y444903D01*
X1189893Y445979D01*
X1197238Y453324D01*
X1322950D01*
X1341774Y434501D01*
X1342006Y432735D01*
X1343018Y430293D01*
X1344627Y428195D01*
X1346725Y426586D01*
X1349167Y425574D01*
X1351788Y425229D01*
X1354409Y425574D01*
X1356851Y426586D01*
X1358949Y428195D01*
X1360558Y430293D01*
X1361570Y432735D01*
X1361915Y435356D01*
X1361570Y437977D01*
X1360558Y440419D01*
X1358949Y442517D01*
X1356851Y444126D01*
X1354409Y445138D01*
X1352643Y445370D01*
X1331569Y466445D01*
X1329977Y467666D01*
X1328123Y468434D01*
X1326134Y468696D01*
X1194054D01*
X1194054Y468696D01*
D02*
G37*
G36*
X209430Y420116D02*
X203200D01*
Y413886D01*
X209430D01*
Y420116D01*
D02*
G37*
G36*
X195580D02*
X189350D01*
Y413886D01*
X195580D01*
Y420116D01*
D02*
G37*
G36*
X68968D02*
X62738D01*
Y413886D01*
X68968D01*
Y420116D01*
D02*
G37*
G36*
X55118D02*
X48888D01*
Y413886D01*
X55118D01*
Y420116D01*
D02*
G37*
G36*
X173990Y434053D02*
X171369Y433708D01*
X168927Y432696D01*
X166829Y431087D01*
X165220Y428989D01*
X164208Y426547D01*
X163863Y423926D01*
X164208Y421305D01*
X165220Y418863D01*
X166829Y416765D01*
X168927Y415156D01*
X171369Y414144D01*
X173990Y413799D01*
X176611Y414144D01*
X179053Y415156D01*
X181151Y416765D01*
X182760Y418863D01*
X183772Y421305D01*
X184117Y423926D01*
X183772Y426547D01*
X182760Y428989D01*
X181151Y431087D01*
X179053Y432696D01*
X176611Y433708D01*
X173990Y434053D01*
D02*
G37*
G36*
X84328D02*
X81707Y433708D01*
X79265Y432696D01*
X77167Y431087D01*
X75558Y428989D01*
X74546Y426547D01*
X74201Y423926D01*
X74546Y421305D01*
X75558Y418863D01*
X77167Y416765D01*
X79265Y415156D01*
X81707Y414144D01*
X84328Y413799D01*
X86949Y414144D01*
X89391Y415156D01*
X91489Y416765D01*
X93098Y418863D01*
X94110Y421305D01*
X94455Y423926D01*
X94110Y426547D01*
X93098Y428989D01*
X91489Y431087D01*
X89391Y432696D01*
X86949Y433708D01*
X84328Y434053D01*
D02*
G37*
G36*
X1412628Y369196D02*
X1406398D01*
Y362966D01*
X1412628D01*
Y369196D01*
D02*
G37*
G36*
X1323220D02*
X1316990D01*
Y362966D01*
X1323220D01*
Y369196D01*
D02*
G37*
G36*
X1309370D02*
X1303140D01*
Y362966D01*
X1309370D01*
Y369196D01*
D02*
G37*
G36*
X1398778D02*
X1392548D01*
Y362966D01*
X1398778D01*
Y369196D01*
D02*
G37*
G36*
X242570Y357853D02*
X239949Y357508D01*
X237507Y356496D01*
X236094Y355412D01*
X116204D01*
X114791Y356496D01*
X112349Y357508D01*
X109728Y357853D01*
X107107Y357508D01*
X104665Y356496D01*
X102567Y354887D01*
X100958Y352789D01*
X99946Y350347D01*
X99601Y347726D01*
X99946Y345105D01*
X100958Y342663D01*
X102567Y340565D01*
X104665Y338956D01*
X107107Y337944D01*
X109728Y337599D01*
X112349Y337944D01*
X114791Y338956D01*
X116204Y340040D01*
X236094D01*
X237507Y338956D01*
X239949Y337944D01*
X242570Y337599D01*
X245191Y337944D01*
X247633Y338956D01*
X249731Y340565D01*
X251340Y342663D01*
X252352Y345105D01*
X252697Y347726D01*
X252352Y350347D01*
X251340Y352789D01*
X249731Y354887D01*
X247633Y356496D01*
X245191Y357508D01*
X242570Y357853D01*
D02*
G37*
G36*
X303410Y357766D02*
X297180D01*
Y351536D01*
X303410D01*
Y357766D01*
D02*
G37*
G36*
X68968D02*
X62738D01*
Y351536D01*
X68968D01*
Y357766D01*
D02*
G37*
G36*
X55118D02*
X48888D01*
Y351536D01*
X55118D01*
Y357766D01*
D02*
G37*
G36*
X289560D02*
X283330D01*
Y351536D01*
X289560D01*
Y357766D01*
D02*
G37*
G36*
X1412628Y355346D02*
X1406398D01*
Y349116D01*
X1412628D01*
Y355346D01*
D02*
G37*
G36*
X1398778D02*
X1392548D01*
Y349116D01*
X1398778D01*
Y355346D01*
D02*
G37*
G36*
X1323220D02*
X1316990D01*
Y349116D01*
X1323220D01*
Y355346D01*
D02*
G37*
G36*
X1309370D02*
X1303140D01*
Y349116D01*
X1309370D01*
Y355346D01*
D02*
G37*
G36*
X1377188Y369283D02*
X1374567Y368938D01*
X1372125Y367926D01*
X1370027Y366317D01*
X1368418Y364219D01*
X1367406Y361777D01*
X1367061Y359156D01*
X1367406Y356535D01*
X1368418Y354093D01*
X1370027Y351995D01*
X1372125Y350386D01*
X1374567Y349374D01*
X1377188Y349029D01*
X1379809Y349374D01*
X1382251Y350386D01*
X1384349Y351995D01*
X1385958Y354093D01*
X1386970Y356535D01*
X1387315Y359156D01*
X1386970Y361777D01*
X1385958Y364219D01*
X1384349Y366317D01*
X1382251Y367926D01*
X1379809Y368938D01*
X1377188Y369283D01*
D02*
G37*
G36*
X1288034Y392496D02*
X1286045Y392234D01*
X1284191Y391466D01*
X1282599Y390245D01*
X1261525Y369170D01*
X1259759Y368938D01*
X1257317Y367926D01*
X1255219Y366317D01*
X1253610Y364219D01*
X1252598Y361777D01*
X1252253Y359156D01*
X1252598Y356535D01*
X1253610Y354093D01*
X1255219Y351995D01*
X1257317Y350386D01*
X1259759Y349374D01*
X1262380Y349029D01*
X1265001Y349374D01*
X1267443Y350386D01*
X1269541Y351995D01*
X1271150Y354093D01*
X1272162Y356535D01*
X1272394Y358301D01*
X1277157Y363063D01*
X1278233Y362344D01*
X1277998Y361777D01*
X1277653Y359156D01*
X1277998Y356535D01*
X1279010Y354093D01*
X1280619Y351995D01*
X1282717Y350386D01*
X1285159Y349374D01*
X1287780Y349029D01*
X1290401Y349374D01*
X1292843Y350386D01*
X1294941Y351995D01*
X1296550Y354093D01*
X1297562Y356535D01*
X1297907Y359156D01*
X1297562Y361777D01*
X1296550Y364219D01*
X1294941Y366317D01*
X1292843Y367926D01*
X1290401Y368938D01*
X1287780Y369283D01*
X1285159Y368938D01*
X1284592Y368703D01*
X1283873Y369779D01*
X1291218Y377124D01*
X1322950D01*
X1341774Y358301D01*
X1342006Y356535D01*
X1343018Y354093D01*
X1344627Y351995D01*
X1346725Y350386D01*
X1349167Y349374D01*
X1351788Y349029D01*
X1354409Y349374D01*
X1356851Y350386D01*
X1358949Y351995D01*
X1360558Y354093D01*
X1361570Y356535D01*
X1361915Y359156D01*
X1361570Y361777D01*
X1360558Y364219D01*
X1358949Y366317D01*
X1356851Y367926D01*
X1354409Y368938D01*
X1352643Y369170D01*
X1331569Y390245D01*
X1329977Y391466D01*
X1328123Y392234D01*
X1326134Y392496D01*
X1288034D01*
X1288034Y392496D01*
D02*
G37*
G36*
X303410Y343916D02*
X297180D01*
Y337686D01*
X303410D01*
Y343916D01*
D02*
G37*
G36*
X289560D02*
X283330D01*
Y337686D01*
X289560D01*
Y343916D01*
D02*
G37*
G36*
X68968D02*
X62738D01*
Y337686D01*
X68968D01*
Y343916D01*
D02*
G37*
G36*
X55118D02*
X48888D01*
Y337686D01*
X55118D01*
Y343916D01*
D02*
G37*
G36*
X267970Y357853D02*
X265349Y357508D01*
X262907Y356496D01*
X260809Y354887D01*
X259200Y352789D01*
X258188Y350347D01*
X257843Y347726D01*
X258188Y345105D01*
X259200Y342663D01*
X260809Y340565D01*
X262907Y338956D01*
X265349Y337944D01*
X267970Y337599D01*
X270591Y337944D01*
X273033Y338956D01*
X275131Y340565D01*
X276740Y342663D01*
X277752Y345105D01*
X278097Y347726D01*
X277752Y350347D01*
X276740Y352789D01*
X275131Y354887D01*
X273033Y356496D01*
X270591Y357508D01*
X267970Y357853D01*
D02*
G37*
G36*
X84328D02*
X81707Y357508D01*
X79265Y356496D01*
X77167Y354887D01*
X75558Y352789D01*
X74546Y350347D01*
X74201Y347726D01*
X74546Y345105D01*
X75558Y342663D01*
X77167Y340565D01*
X79265Y338956D01*
X81707Y337944D01*
X84328Y337599D01*
X86949Y337944D01*
X89391Y338956D01*
X91489Y340565D01*
X93098Y342663D01*
X94110Y345105D01*
X94455Y347726D01*
X94110Y350347D01*
X93098Y352789D01*
X91489Y354887D01*
X89391Y356496D01*
X86949Y357508D01*
X84328Y357853D01*
D02*
G37*
G36*
X689998Y294520D02*
X683768D01*
Y288290D01*
X689998D01*
Y294520D01*
D02*
G37*
G36*
X537598D02*
X531368D01*
Y288290D01*
X537598D01*
Y294520D01*
D02*
G37*
G36*
X676148D02*
X669918D01*
Y288290D01*
X676148D01*
Y294520D01*
D02*
G37*
G36*
X523748D02*
X517518D01*
Y288290D01*
X523748D01*
Y294520D01*
D02*
G37*
G36*
X1412628Y292996D02*
X1406398D01*
Y286766D01*
X1412628D01*
Y292996D01*
D02*
G37*
G36*
X1398778D02*
X1392548D01*
Y286766D01*
X1398778D01*
Y292996D01*
D02*
G37*
G36*
X1229240Y288170D02*
X1223010D01*
Y281940D01*
X1229240D01*
Y288170D01*
D02*
G37*
G36*
X1215390D02*
X1209160D01*
Y281940D01*
X1215390D01*
Y288170D01*
D02*
G37*
G36*
X148590Y281653D02*
X145969Y281308D01*
X143527Y280296D01*
X142114Y279212D01*
X116204D01*
X114791Y280296D01*
X112349Y281308D01*
X109728Y281653D01*
X107107Y281308D01*
X104665Y280296D01*
X102567Y278687D01*
X100958Y276589D01*
X99946Y274147D01*
X99601Y271526D01*
X99946Y268905D01*
X100958Y266463D01*
X102567Y264365D01*
X104665Y262756D01*
X107107Y261744D01*
X109728Y261399D01*
X112349Y261744D01*
X114791Y262756D01*
X116204Y263840D01*
X142114D01*
X143527Y262756D01*
X145969Y261744D01*
X148590Y261399D01*
X151211Y261744D01*
X153653Y262756D01*
X155751Y264365D01*
X157360Y266463D01*
X158372Y268905D01*
X158717Y271526D01*
X158372Y274147D01*
X157360Y276589D01*
X155751Y278687D01*
X153653Y280296D01*
X151211Y281308D01*
X148590Y281653D01*
D02*
G37*
G36*
X209430Y281566D02*
X203200D01*
Y275336D01*
X209430D01*
Y281566D01*
D02*
G37*
G36*
X68968D02*
X62738D01*
Y275336D01*
X68968D01*
Y281566D01*
D02*
G37*
G36*
X55118D02*
X48888D01*
Y275336D01*
X55118D01*
Y281566D01*
D02*
G37*
G36*
X195580D02*
X189350D01*
Y275336D01*
X195580D01*
Y281566D01*
D02*
G37*
G36*
X689998Y280670D02*
X683768D01*
Y274440D01*
X689998D01*
Y280670D01*
D02*
G37*
G36*
X676148D02*
X669918D01*
Y274440D01*
X676148D01*
Y280670D01*
D02*
G37*
G36*
X537598D02*
X531368D01*
Y274440D01*
X537598D01*
Y280670D01*
D02*
G37*
G36*
X523748D02*
X517518D01*
Y274440D01*
X523748D01*
Y280670D01*
D02*
G37*
G36*
X1010158Y294607D02*
X1007537Y294262D01*
X1005095Y293250D01*
X1002997Y291641D01*
X1001388Y289543D01*
X1000376Y287101D01*
X1000031Y284480D01*
X1000144Y283622D01*
X980942Y264420D01*
X979538Y262320D01*
X979046Y259842D01*
Y134366D01*
X979538Y131888D01*
X980942Y129788D01*
X1000144Y110585D01*
X1000031Y109728D01*
X1000376Y107107D01*
X1001388Y104665D01*
X1002997Y102567D01*
X1005095Y100958D01*
X1007537Y99946D01*
X1010158Y99601D01*
X1012779Y99946D01*
X1015221Y100958D01*
X1017319Y102567D01*
X1018928Y104665D01*
X1019940Y107107D01*
X1020285Y109728D01*
X1019940Y112349D01*
X1018928Y114791D01*
X1017319Y116889D01*
X1015221Y118498D01*
X1012779Y119510D01*
X1010158Y119855D01*
X1009301Y119742D01*
X991994Y137048D01*
Y257160D01*
X1009301Y274466D01*
X1010158Y274353D01*
X1012779Y274698D01*
X1015221Y275710D01*
X1017319Y277319D01*
X1018928Y279417D01*
X1019940Y281859D01*
X1020285Y284480D01*
X1019940Y287101D01*
X1018928Y289543D01*
X1017319Y291641D01*
X1015221Y293250D01*
X1012779Y294262D01*
X1010158Y294607D01*
D02*
G37*
G36*
X857758D02*
X855137Y294262D01*
X852695Y293250D01*
X850597Y291641D01*
X848988Y289543D01*
X847976Y287101D01*
X847631Y284480D01*
X847744Y283622D01*
X828542Y264420D01*
X827138Y262320D01*
X826646Y259842D01*
Y134366D01*
X827138Y131888D01*
X828542Y129788D01*
X847744Y110585D01*
X847631Y109728D01*
X847976Y107107D01*
X848988Y104665D01*
X850597Y102567D01*
X852695Y100958D01*
X855137Y99946D01*
X857758Y99601D01*
X860379Y99946D01*
X862821Y100958D01*
X864919Y102567D01*
X866528Y104665D01*
X867540Y107107D01*
X867885Y109728D01*
X867540Y112349D01*
X866528Y114791D01*
X864919Y116889D01*
X862821Y118498D01*
X860379Y119510D01*
X857758Y119855D01*
X856900Y119742D01*
X839594Y137048D01*
Y257160D01*
X856900Y274466D01*
X857758Y274353D01*
X860379Y274698D01*
X862821Y275710D01*
X864919Y277319D01*
X866528Y279417D01*
X867540Y281859D01*
X867885Y284480D01*
X867540Y287101D01*
X866528Y289543D01*
X864919Y291641D01*
X862821Y293250D01*
X860379Y294262D01*
X857758Y294607D01*
D02*
G37*
G36*
X1412628Y279146D02*
X1406398D01*
Y272916D01*
X1412628D01*
Y279146D01*
D02*
G37*
G36*
X1398778D02*
X1392548D01*
Y272916D01*
X1398778D01*
Y279146D01*
D02*
G37*
G36*
X1377188Y293083D02*
X1374567Y292738D01*
X1372125Y291726D01*
X1370027Y290117D01*
X1368418Y288019D01*
X1367406Y285577D01*
X1367061Y282956D01*
X1367406Y280335D01*
X1368418Y277893D01*
X1370027Y275795D01*
X1372125Y274186D01*
X1374567Y273174D01*
X1377188Y272829D01*
X1379809Y273174D01*
X1382251Y274186D01*
X1384349Y275795D01*
X1385958Y277893D01*
X1386970Y280335D01*
X1387315Y282956D01*
X1386970Y285577D01*
X1385958Y288019D01*
X1384349Y290117D01*
X1382251Y291726D01*
X1379809Y292738D01*
X1377188Y293083D01*
D02*
G37*
G36*
X1193800Y311216D02*
X1191811Y310954D01*
X1189957Y310186D01*
X1188365Y308965D01*
X1188365Y308965D01*
X1167545Y288144D01*
X1165779Y287912D01*
X1163337Y286900D01*
X1161239Y285291D01*
X1159630Y283193D01*
X1158618Y280751D01*
X1158273Y278130D01*
X1158618Y275509D01*
X1159630Y273067D01*
X1161239Y270969D01*
X1163337Y269360D01*
X1165779Y268348D01*
X1168400Y268003D01*
X1171021Y268348D01*
X1173463Y269360D01*
X1175561Y270969D01*
X1177170Y273067D01*
X1178182Y275509D01*
X1178414Y277275D01*
X1183177Y282037D01*
X1184253Y281318D01*
X1184018Y280751D01*
X1183673Y278130D01*
X1184018Y275509D01*
X1185030Y273067D01*
X1186639Y270969D01*
X1188737Y269360D01*
X1191179Y268348D01*
X1193800Y268003D01*
X1196421Y268348D01*
X1198863Y269360D01*
X1200961Y270969D01*
X1202570Y273067D01*
X1203582Y275509D01*
X1203927Y278130D01*
X1203582Y280751D01*
X1202570Y283193D01*
X1200961Y285291D01*
X1198863Y286900D01*
X1196421Y287912D01*
X1193800Y288257D01*
X1191179Y287912D01*
X1190612Y287677D01*
X1189893Y288753D01*
X1196983Y295844D01*
X1328030D01*
X1341774Y282101D01*
X1342006Y280335D01*
X1343018Y277893D01*
X1344627Y275795D01*
X1346725Y274186D01*
X1349167Y273174D01*
X1351788Y272829D01*
X1354409Y273174D01*
X1356851Y274186D01*
X1358949Y275795D01*
X1360558Y277893D01*
X1361570Y280335D01*
X1361915Y282956D01*
X1361570Y285577D01*
X1360558Y288019D01*
X1358949Y290117D01*
X1356851Y291726D01*
X1354409Y292738D01*
X1352643Y292970D01*
X1336649Y308965D01*
X1335057Y310186D01*
X1333203Y310954D01*
X1331214Y311216D01*
X1193800D01*
X1193800Y311216D01*
D02*
G37*
G36*
X1229240Y274320D02*
X1223010D01*
Y268090D01*
X1229240D01*
Y274320D01*
D02*
G37*
G36*
X1215390D02*
X1209160D01*
Y268090D01*
X1215390D01*
Y274320D01*
D02*
G37*
G36*
X209430Y267716D02*
X203200D01*
Y261486D01*
X209430D01*
Y267716D01*
D02*
G37*
G36*
X195580D02*
X189350D01*
Y261486D01*
X195580D01*
Y267716D01*
D02*
G37*
G36*
X68968D02*
X62738D01*
Y261486D01*
X68968D01*
Y267716D01*
D02*
G37*
G36*
X55118D02*
X48888D01*
Y261486D01*
X55118D01*
Y267716D01*
D02*
G37*
G36*
X173990Y281653D02*
X171369Y281308D01*
X168927Y280296D01*
X166829Y278687D01*
X165220Y276589D01*
X164208Y274147D01*
X163863Y271526D01*
X164208Y268905D01*
X165220Y266463D01*
X166829Y264365D01*
X168927Y262756D01*
X171369Y261744D01*
X173990Y261399D01*
X176611Y261744D01*
X179053Y262756D01*
X181151Y264365D01*
X182760Y266463D01*
X183772Y268905D01*
X184117Y271526D01*
X183772Y274147D01*
X182760Y276589D01*
X181151Y278687D01*
X179053Y280296D01*
X176611Y281308D01*
X173990Y281653D01*
D02*
G37*
G36*
X84328D02*
X81707Y281308D01*
X79265Y280296D01*
X77167Y278687D01*
X75558Y276589D01*
X74546Y274147D01*
X74201Y271526D01*
X74546Y268905D01*
X75558Y266463D01*
X77167Y264365D01*
X79265Y262756D01*
X81707Y261744D01*
X84328Y261399D01*
X86949Y261744D01*
X89391Y262756D01*
X91489Y264365D01*
X93098Y266463D01*
X94110Y268905D01*
X94455Y271526D01*
X94110Y274147D01*
X93098Y276589D01*
X91489Y278687D01*
X89391Y280296D01*
X86949Y281308D01*
X84328Y281653D01*
D02*
G37*
G36*
X1010158Y269207D02*
X1007537Y268862D01*
X1005095Y267850D01*
X1002997Y266241D01*
X1001388Y264143D01*
X1000376Y261701D01*
X1000031Y259080D01*
X1000376Y256459D01*
X1001388Y254017D01*
X1002997Y251919D01*
X1005095Y250310D01*
X1007537Y249298D01*
X1010158Y248953D01*
X1012779Y249298D01*
X1015221Y250310D01*
X1017319Y251919D01*
X1018928Y254017D01*
X1019940Y256459D01*
X1020285Y259080D01*
X1019940Y261701D01*
X1018928Y264143D01*
X1017319Y266241D01*
X1015221Y267850D01*
X1012779Y268862D01*
X1010158Y269207D01*
D02*
G37*
G36*
X857758D02*
X855137Y268862D01*
X852695Y267850D01*
X850597Y266241D01*
X848988Y264143D01*
X847976Y261701D01*
X847631Y259080D01*
X847976Y256459D01*
X848988Y254017D01*
X850597Y251919D01*
X852695Y250310D01*
X855137Y249298D01*
X857758Y248953D01*
X860379Y249298D01*
X862821Y250310D01*
X864919Y251919D01*
X866528Y254017D01*
X867540Y256459D01*
X867885Y259080D01*
X867540Y261701D01*
X866528Y264143D01*
X864919Y266241D01*
X862821Y267850D01*
X860379Y268862D01*
X857758Y269207D01*
D02*
G37*
G36*
X679958D02*
X677337Y268862D01*
X674895Y267850D01*
X672797Y266241D01*
X671188Y264143D01*
X670176Y261701D01*
X669831Y259080D01*
X670176Y256459D01*
X671188Y254017D01*
X672797Y251919D01*
X674895Y250310D01*
X677337Y249298D01*
X679958Y248953D01*
X682579Y249298D01*
X685021Y250310D01*
X687119Y251919D01*
X688728Y254017D01*
X689740Y256459D01*
X690085Y259080D01*
X689740Y261701D01*
X688728Y264143D01*
X687119Y266241D01*
X685021Y267850D01*
X682579Y268862D01*
X679958Y269207D01*
D02*
G37*
G36*
X527558D02*
X524937Y268862D01*
X522495Y267850D01*
X520397Y266241D01*
X518788Y264143D01*
X517776Y261701D01*
X517431Y259080D01*
X517776Y256459D01*
X518788Y254017D01*
X520397Y251919D01*
X522495Y250310D01*
X524937Y249298D01*
X527558Y248953D01*
X530179Y249298D01*
X532621Y250310D01*
X534719Y251919D01*
X536328Y254017D01*
X537340Y256459D01*
X537685Y259080D01*
X537340Y261701D01*
X536328Y264143D01*
X534719Y266241D01*
X532621Y267850D01*
X530179Y268862D01*
X527558Y269207D01*
D02*
G37*
G36*
X1020198Y243720D02*
X1013968D01*
Y237490D01*
X1020198D01*
Y243720D01*
D02*
G37*
G36*
X867798D02*
X861568D01*
Y237490D01*
X867798D01*
Y243720D01*
D02*
G37*
G36*
X1006348D02*
X1000118D01*
Y237490D01*
X1006348D01*
Y243720D01*
D02*
G37*
G36*
X853948D02*
X847718D01*
Y237490D01*
X853948D01*
Y243720D01*
D02*
G37*
G36*
X1020198Y229870D02*
X1013968D01*
Y223640D01*
X1020198D01*
Y229870D01*
D02*
G37*
G36*
X1006348D02*
X1000118D01*
Y223640D01*
X1006348D01*
Y229870D01*
D02*
G37*
G36*
X867798D02*
X861568D01*
Y223640D01*
X867798D01*
Y229870D01*
D02*
G37*
G36*
X853948D02*
X847718D01*
Y223640D01*
X853948D01*
Y229870D01*
D02*
G37*
G36*
X1412628Y216796D02*
X1406398D01*
Y210566D01*
X1412628D01*
Y216796D01*
D02*
G37*
G36*
X1323220D02*
X1316990D01*
Y210566D01*
X1323220D01*
Y216796D01*
D02*
G37*
G36*
X1398778D02*
X1392548D01*
Y210566D01*
X1398778D01*
Y216796D01*
D02*
G37*
G36*
X1309370D02*
X1303140D01*
Y210566D01*
X1309370D01*
Y216796D01*
D02*
G37*
G36*
X242570Y205453D02*
X239949Y205108D01*
X237507Y204096D01*
X236094Y203012D01*
X116204D01*
X114791Y204096D01*
X112349Y205108D01*
X109728Y205453D01*
X107107Y205108D01*
X104665Y204096D01*
X102567Y202487D01*
X100958Y200389D01*
X99946Y197947D01*
X99601Y195326D01*
X99946Y192705D01*
X100958Y190263D01*
X102567Y188165D01*
X104665Y186556D01*
X107107Y185544D01*
X109728Y185199D01*
X112349Y185544D01*
X114791Y186556D01*
X116204Y187640D01*
X236094D01*
X237507Y186556D01*
X239949Y185544D01*
X242570Y185199D01*
X245191Y185544D01*
X247633Y186556D01*
X249731Y188165D01*
X251340Y190263D01*
X252352Y192705D01*
X252697Y195326D01*
X252352Y197947D01*
X251340Y200389D01*
X249731Y202487D01*
X247633Y204096D01*
X245191Y205108D01*
X242570Y205453D01*
D02*
G37*
G36*
X613798Y208160D02*
X607568D01*
Y201930D01*
X613798D01*
Y208160D01*
D02*
G37*
G36*
X461398D02*
X455168D01*
Y201930D01*
X461398D01*
Y208160D01*
D02*
G37*
G36*
X599948D02*
X593718D01*
Y201930D01*
X599948D01*
Y208160D01*
D02*
G37*
G36*
X447548D02*
X441318D01*
Y201930D01*
X447548D01*
Y208160D01*
D02*
G37*
G36*
X303410Y205366D02*
X297180D01*
Y199136D01*
X303410D01*
Y205366D01*
D02*
G37*
G36*
X68968D02*
X62738D01*
Y199136D01*
X68968D01*
Y205366D01*
D02*
G37*
G36*
X55118D02*
X48888D01*
Y199136D01*
X55118D01*
Y205366D01*
D02*
G37*
G36*
X289560D02*
X283330D01*
Y199136D01*
X289560D01*
Y205366D01*
D02*
G37*
G36*
X1412628Y202946D02*
X1406398D01*
Y196716D01*
X1412628D01*
Y202946D01*
D02*
G37*
G36*
X1398778D02*
X1392548D01*
Y196716D01*
X1398778D01*
Y202946D01*
D02*
G37*
G36*
X1323220D02*
X1316990D01*
Y196716D01*
X1323220D01*
Y202946D01*
D02*
G37*
G36*
X1309370D02*
X1303140D01*
Y196716D01*
X1309370D01*
Y202946D01*
D02*
G37*
G36*
X1377188Y216883D02*
X1374567Y216538D01*
X1372125Y215526D01*
X1370027Y213917D01*
X1368418Y211819D01*
X1367406Y209377D01*
X1367061Y206756D01*
X1367406Y204135D01*
X1368418Y201693D01*
X1370027Y199595D01*
X1372125Y197986D01*
X1374567Y196974D01*
X1377188Y196629D01*
X1379809Y196974D01*
X1382251Y197986D01*
X1384349Y199595D01*
X1385958Y201693D01*
X1386970Y204135D01*
X1387315Y206756D01*
X1386970Y209377D01*
X1385958Y211819D01*
X1384349Y213917D01*
X1382251Y215526D01*
X1379809Y216538D01*
X1377188Y216883D01*
D02*
G37*
G36*
X1288034Y240096D02*
X1286045Y239834D01*
X1284191Y239066D01*
X1282599Y237845D01*
X1261525Y216770D01*
X1259759Y216538D01*
X1257317Y215526D01*
X1255219Y213917D01*
X1253610Y211819D01*
X1252598Y209377D01*
X1252253Y206756D01*
X1252598Y204135D01*
X1253610Y201693D01*
X1255219Y199595D01*
X1257317Y197986D01*
X1259759Y196974D01*
X1262380Y196629D01*
X1265001Y196974D01*
X1267443Y197986D01*
X1269541Y199595D01*
X1271150Y201693D01*
X1272162Y204135D01*
X1272394Y205901D01*
X1277157Y210663D01*
X1278233Y209944D01*
X1277998Y209377D01*
X1277653Y206756D01*
X1277998Y204135D01*
X1279010Y201693D01*
X1280619Y199595D01*
X1282717Y197986D01*
X1285159Y196974D01*
X1287780Y196629D01*
X1290401Y196974D01*
X1292843Y197986D01*
X1294941Y199595D01*
X1296550Y201693D01*
X1297562Y204135D01*
X1297907Y206756D01*
X1297562Y209377D01*
X1296550Y211819D01*
X1294941Y213917D01*
X1292843Y215526D01*
X1290401Y216538D01*
X1287780Y216883D01*
X1285159Y216538D01*
X1284592Y216303D01*
X1283873Y217379D01*
X1291218Y224724D01*
X1322950D01*
X1341774Y205901D01*
X1342006Y204135D01*
X1343018Y201693D01*
X1344627Y199595D01*
X1346725Y197986D01*
X1349167Y196974D01*
X1351788Y196629D01*
X1354409Y196974D01*
X1356851Y197986D01*
X1358949Y199595D01*
X1360558Y201693D01*
X1361570Y204135D01*
X1361915Y206756D01*
X1361570Y209377D01*
X1360558Y211819D01*
X1358949Y213917D01*
X1356851Y215526D01*
X1354409Y216538D01*
X1352643Y216770D01*
X1331569Y237845D01*
X1329977Y239066D01*
X1328123Y239834D01*
X1326134Y240096D01*
X1288034D01*
X1288034Y240096D01*
D02*
G37*
G36*
X613798Y194310D02*
X607568D01*
Y188080D01*
X613798D01*
Y194310D01*
D02*
G37*
G36*
X599948D02*
X593718D01*
Y188080D01*
X599948D01*
Y194310D01*
D02*
G37*
G36*
X461398D02*
X455168D01*
Y188080D01*
X461398D01*
Y194310D01*
D02*
G37*
G36*
X447548D02*
X441318D01*
Y188080D01*
X447548D01*
Y194310D01*
D02*
G37*
G36*
X933958Y208247D02*
X931337Y207902D01*
X928895Y206890D01*
X926797Y205281D01*
X925188Y203183D01*
X924176Y200741D01*
X923831Y198120D01*
X923944Y197262D01*
X904742Y178060D01*
X903338Y175960D01*
X902846Y173482D01*
Y134366D01*
X903338Y131888D01*
X904742Y129788D01*
X923944Y110585D01*
X923831Y109728D01*
X924176Y107107D01*
X925188Y104665D01*
X926797Y102567D01*
X928895Y100958D01*
X931337Y99946D01*
X933958Y99601D01*
X936579Y99946D01*
X939021Y100958D01*
X941119Y102567D01*
X942728Y104665D01*
X943740Y107107D01*
X944085Y109728D01*
X943740Y112349D01*
X942728Y114791D01*
X941119Y116889D01*
X939021Y118498D01*
X936579Y119510D01*
X933958Y119855D01*
X933101Y119742D01*
X915794Y137048D01*
Y170800D01*
X933101Y188106D01*
X933958Y187993D01*
X936579Y188338D01*
X939021Y189350D01*
X941119Y190959D01*
X942728Y193057D01*
X943740Y195499D01*
X944085Y198120D01*
X943740Y200741D01*
X942728Y203183D01*
X941119Y205281D01*
X939021Y206890D01*
X936579Y207902D01*
X933958Y208247D01*
D02*
G37*
G36*
X781558D02*
X778937Y207902D01*
X776495Y206890D01*
X774397Y205281D01*
X772788Y203183D01*
X771776Y200741D01*
X771431Y198120D01*
X771544Y197262D01*
X752342Y178060D01*
X750938Y175960D01*
X750446Y173482D01*
Y134366D01*
X750938Y131888D01*
X752342Y129788D01*
X771544Y110585D01*
X771431Y109728D01*
X771776Y107107D01*
X772788Y104665D01*
X774397Y102567D01*
X776495Y100958D01*
X778937Y99946D01*
X781558Y99601D01*
X784179Y99946D01*
X786621Y100958D01*
X788719Y102567D01*
X790328Y104665D01*
X791340Y107107D01*
X791685Y109728D01*
X791340Y112349D01*
X790328Y114791D01*
X788719Y116889D01*
X786621Y118498D01*
X784179Y119510D01*
X781558Y119855D01*
X780701Y119742D01*
X763394Y137048D01*
Y170800D01*
X780701Y188106D01*
X781558Y187993D01*
X784179Y188338D01*
X786621Y189350D01*
X788719Y190959D01*
X790328Y193057D01*
X791340Y195499D01*
X791685Y198120D01*
X791340Y200741D01*
X790328Y203183D01*
X788719Y205281D01*
X786621Y206890D01*
X784179Y207902D01*
X781558Y208247D01*
D02*
G37*
G36*
X303410Y191516D02*
X297180D01*
Y185286D01*
X303410D01*
Y191516D01*
D02*
G37*
G36*
X289560D02*
X283330D01*
Y185286D01*
X289560D01*
Y191516D01*
D02*
G37*
G36*
X68968D02*
X62738D01*
Y185286D01*
X68968D01*
Y191516D01*
D02*
G37*
G36*
X55118D02*
X48888D01*
Y185286D01*
X55118D01*
Y191516D01*
D02*
G37*
G36*
X267970Y205453D02*
X265349Y205108D01*
X262907Y204096D01*
X260809Y202487D01*
X259200Y200389D01*
X258188Y197947D01*
X257843Y195326D01*
X258188Y192705D01*
X259200Y190263D01*
X260809Y188165D01*
X262907Y186556D01*
X265349Y185544D01*
X267970Y185199D01*
X270591Y185544D01*
X273033Y186556D01*
X275131Y188165D01*
X276740Y190263D01*
X277752Y192705D01*
X278097Y195326D01*
X277752Y197947D01*
X276740Y200389D01*
X275131Y202487D01*
X273033Y204096D01*
X270591Y205108D01*
X267970Y205453D01*
D02*
G37*
G36*
X84328D02*
X81707Y205108D01*
X79265Y204096D01*
X77167Y202487D01*
X75558Y200389D01*
X74546Y197947D01*
X74201Y195326D01*
X74546Y192705D01*
X75558Y190263D01*
X77167Y188165D01*
X79265Y186556D01*
X81707Y185544D01*
X84328Y185199D01*
X86949Y185544D01*
X89391Y186556D01*
X91489Y188165D01*
X93098Y190263D01*
X94110Y192705D01*
X94455Y195326D01*
X94110Y197947D01*
X93098Y200389D01*
X91489Y202487D01*
X89391Y204096D01*
X86949Y205108D01*
X84328Y205453D01*
D02*
G37*
G36*
X933958Y182847D02*
X931337Y182502D01*
X928895Y181490D01*
X926797Y179881D01*
X925188Y177783D01*
X924176Y175341D01*
X923831Y172720D01*
X924176Y170099D01*
X925188Y167657D01*
X926797Y165559D01*
X928895Y163950D01*
X931337Y162938D01*
X933958Y162593D01*
X936579Y162938D01*
X939021Y163950D01*
X941119Y165559D01*
X942728Y167657D01*
X943740Y170099D01*
X944085Y172720D01*
X943740Y175341D01*
X942728Y177783D01*
X941119Y179881D01*
X939021Y181490D01*
X936579Y182502D01*
X933958Y182847D01*
D02*
G37*
G36*
X781558D02*
X778937Y182502D01*
X776495Y181490D01*
X774397Y179881D01*
X772788Y177783D01*
X771776Y175341D01*
X771431Y172720D01*
X771776Y170099D01*
X772788Y167657D01*
X774397Y165559D01*
X776495Y163950D01*
X778937Y162938D01*
X781558Y162593D01*
X784179Y162938D01*
X786621Y163950D01*
X788719Y165559D01*
X790328Y167657D01*
X791340Y170099D01*
X791685Y172720D01*
X791340Y175341D01*
X790328Y177783D01*
X788719Y179881D01*
X786621Y181490D01*
X784179Y182502D01*
X781558Y182847D01*
D02*
G37*
G36*
X603758D02*
X601137Y182502D01*
X598695Y181490D01*
X596597Y179881D01*
X594988Y177783D01*
X593976Y175341D01*
X593631Y172720D01*
X593976Y170099D01*
X594988Y167657D01*
X596597Y165559D01*
X598695Y163950D01*
X601137Y162938D01*
X603758Y162593D01*
X606379Y162938D01*
X608821Y163950D01*
X610919Y165559D01*
X612528Y167657D01*
X613540Y170099D01*
X613885Y172720D01*
X613540Y175341D01*
X612528Y177783D01*
X610919Y179881D01*
X608821Y181490D01*
X606379Y182502D01*
X603758Y182847D01*
D02*
G37*
G36*
X451358D02*
X448737Y182502D01*
X446295Y181490D01*
X444197Y179881D01*
X442588Y177783D01*
X441576Y175341D01*
X441231Y172720D01*
X441576Y170099D01*
X442588Y167657D01*
X444197Y165559D01*
X446295Y163950D01*
X448737Y162938D01*
X451358Y162593D01*
X453979Y162938D01*
X456421Y163950D01*
X458519Y165559D01*
X460128Y167657D01*
X461140Y170099D01*
X461485Y172720D01*
X461140Y175341D01*
X460128Y177783D01*
X458519Y179881D01*
X456421Y181490D01*
X453979Y182502D01*
X451358Y182847D01*
D02*
G37*
G36*
X943998Y157360D02*
X937768D01*
Y151130D01*
X943998D01*
Y157360D01*
D02*
G37*
G36*
X791598D02*
X785368D01*
Y151130D01*
X791598D01*
Y157360D01*
D02*
G37*
G36*
X777748D02*
X771518D01*
Y151130D01*
X777748D01*
Y157360D01*
D02*
G37*
G36*
X930148D02*
X923918D01*
Y151130D01*
X930148D01*
Y157360D01*
D02*
G37*
G36*
X943998Y143510D02*
X937768D01*
Y137280D01*
X943998D01*
Y143510D01*
D02*
G37*
G36*
X930148D02*
X923918D01*
Y137280D01*
X930148D01*
Y143510D01*
D02*
G37*
G36*
X791598D02*
X785368D01*
Y137280D01*
X791598D01*
Y143510D01*
D02*
G37*
G36*
X777748D02*
X771518D01*
Y137280D01*
X777748D01*
Y143510D01*
D02*
G37*
G36*
X1311420Y133640D02*
X1309450D01*
X1309450Y133640D01*
X1149450D01*
X1147480Y133640D01*
X1147230Y133590D01*
X1146975D01*
X1143111Y132821D01*
X1142875Y132724D01*
X1142625Y132674D01*
X1138985Y131166D01*
X1138773Y131025D01*
X1138538Y130927D01*
X1135262Y128738D01*
X1135082Y128558D01*
X1134870Y128416D01*
X1132084Y125631D01*
X1131942Y125418D01*
X1131762Y125238D01*
X1129573Y121962D01*
X1129475Y121727D01*
X1129334Y121515D01*
X1127826Y117875D01*
X1127776Y117625D01*
X1127679Y117389D01*
X1126910Y113525D01*
Y113270D01*
X1126860Y113020D01*
Y111050D01*
X1126860Y111050D01*
X1126860Y51050D01*
Y49080D01*
X1126910Y48830D01*
Y48575D01*
X1127679Y44711D01*
X1127776Y44475D01*
X1127826Y44225D01*
X1129334Y40585D01*
X1129475Y40373D01*
X1129573Y40138D01*
X1131762Y36862D01*
X1131942Y36682D01*
X1132084Y36470D01*
X1134870Y33684D01*
X1135082Y33542D01*
X1135262Y33362D01*
X1138538Y31173D01*
X1138773Y31075D01*
X1138985Y30934D01*
X1142625Y29426D01*
X1142875Y29376D01*
X1143111Y29279D01*
X1146975Y28510D01*
X1147230D01*
X1147480Y28460D01*
X1311420D01*
X1311670Y28510D01*
X1311925D01*
X1315789Y29279D01*
X1316025Y29376D01*
X1316275Y29426D01*
X1319915Y30934D01*
X1320127Y31075D01*
X1320362Y31173D01*
X1323638Y33362D01*
X1323818Y33542D01*
X1324030Y33684D01*
X1326816Y36470D01*
X1326958Y36682D01*
X1327138Y36862D01*
X1329327Y40138D01*
X1329425Y40373D01*
X1329566Y40585D01*
X1331074Y44225D01*
X1331124Y44475D01*
X1331221Y44711D01*
X1331990Y48575D01*
Y48830D01*
X1332040Y49080D01*
Y51050D01*
Y111050D01*
Y113020D01*
X1331990Y113270D01*
Y113525D01*
X1331221Y117389D01*
X1331124Y117625D01*
X1331074Y117875D01*
X1329566Y121515D01*
X1329425Y121727D01*
X1329327Y121962D01*
X1327138Y125238D01*
X1326958Y125418D01*
X1326816Y125631D01*
X1324030Y128416D01*
X1323818Y128558D01*
X1323638Y128738D01*
X1320362Y130927D01*
X1320127Y131025D01*
X1319915Y131166D01*
X1316275Y132674D01*
X1316025Y132724D01*
X1315789Y132821D01*
X1311925Y133590D01*
X1311670D01*
X1311420Y133640D01*
D02*
G37*
G36*
X679958Y243807D02*
X677337Y243462D01*
X674895Y242450D01*
X672797Y240841D01*
X671188Y238743D01*
X670176Y236301D01*
X669831Y233680D01*
X670176Y231059D01*
X671188Y228617D01*
X672797Y226519D01*
X673484Y225993D01*
Y117415D01*
X672797Y116889D01*
X671188Y114791D01*
X670176Y112349D01*
X669831Y109728D01*
X670176Y107107D01*
X671188Y104665D01*
X672797Y102567D01*
X674895Y100958D01*
X677337Y99946D01*
X679958Y99601D01*
X682579Y99946D01*
X685021Y100958D01*
X687119Y102567D01*
X688728Y104665D01*
X689740Y107107D01*
X690085Y109728D01*
X689740Y112349D01*
X688728Y114791D01*
X687119Y116889D01*
X686432Y117415D01*
Y225993D01*
X687119Y226519D01*
X688728Y228617D01*
X689740Y231059D01*
X690085Y233680D01*
X689740Y236301D01*
X688728Y238743D01*
X687119Y240841D01*
X685021Y242450D01*
X682579Y243462D01*
X679958Y243807D01*
D02*
G37*
G36*
X603758Y157447D02*
X601137Y157102D01*
X598695Y156090D01*
X596597Y154481D01*
X594988Y152383D01*
X593976Y149941D01*
X593631Y147320D01*
X593976Y144699D01*
X594988Y142257D01*
X596597Y140159D01*
X597284Y139633D01*
Y117415D01*
X596597Y116889D01*
X594988Y114791D01*
X593976Y112349D01*
X593631Y109728D01*
X593976Y107107D01*
X594988Y104665D01*
X596597Y102567D01*
X598695Y100958D01*
X601137Y99946D01*
X603758Y99601D01*
X606379Y99946D01*
X608821Y100958D01*
X610919Y102567D01*
X612528Y104665D01*
X613540Y107107D01*
X613885Y109728D01*
X613540Y112349D01*
X612528Y114791D01*
X610919Y116889D01*
X610232Y117415D01*
Y139633D01*
X610919Y140159D01*
X612528Y142257D01*
X613540Y144699D01*
X613885Y147320D01*
X613540Y149941D01*
X612528Y152383D01*
X610919Y154481D01*
X608821Y156090D01*
X606379Y157102D01*
X603758Y157447D01*
D02*
G37*
G36*
X527558Y243807D02*
X524937Y243462D01*
X522495Y242450D01*
X520397Y240841D01*
X518788Y238743D01*
X517776Y236301D01*
X517431Y233680D01*
X517776Y231059D01*
X518788Y228617D01*
X520397Y226519D01*
X521084Y225993D01*
Y117415D01*
X520397Y116889D01*
X518788Y114791D01*
X517776Y112349D01*
X517431Y109728D01*
X517776Y107107D01*
X518788Y104665D01*
X520397Y102567D01*
X522495Y100958D01*
X524937Y99946D01*
X527558Y99601D01*
X530179Y99946D01*
X532621Y100958D01*
X534719Y102567D01*
X536328Y104665D01*
X537340Y107107D01*
X537685Y109728D01*
X537340Y112349D01*
X536328Y114791D01*
X534719Y116889D01*
X534032Y117415D01*
Y225993D01*
X534719Y226519D01*
X536328Y228617D01*
X537340Y231059D01*
X537685Y233680D01*
X537340Y236301D01*
X536328Y238743D01*
X534719Y240841D01*
X532621Y242450D01*
X530179Y243462D01*
X527558Y243807D01*
D02*
G37*
G36*
X451358Y157447D02*
X448737Y157102D01*
X446295Y156090D01*
X444197Y154481D01*
X442588Y152383D01*
X441576Y149941D01*
X441231Y147320D01*
X441576Y144699D01*
X442588Y142257D01*
X443672Y140844D01*
Y116204D01*
X442588Y114791D01*
X441576Y112349D01*
X441231Y109728D01*
X441576Y107107D01*
X442588Y104665D01*
X444197Y102567D01*
X446295Y100958D01*
X448737Y99946D01*
X451358Y99601D01*
X453979Y99946D01*
X456421Y100958D01*
X458519Y102567D01*
X460128Y104665D01*
X461140Y107107D01*
X461485Y109728D01*
X461140Y112349D01*
X460128Y114791D01*
X459044Y116204D01*
Y140844D01*
X460128Y142257D01*
X461140Y144699D01*
X461485Y147320D01*
X461140Y149941D01*
X460128Y152383D01*
X458519Y154481D01*
X456421Y156090D01*
X453979Y157102D01*
X451358Y157447D01*
D02*
G37*
G36*
X1010158Y94455D02*
X1007537Y94110D01*
X1005095Y93098D01*
X1002997Y91489D01*
X1001388Y89391D01*
X1000376Y86949D01*
X1000031Y84328D01*
X1000376Y81707D01*
X1001388Y79265D01*
X1002997Y77167D01*
X1005095Y75558D01*
X1007537Y74546D01*
X1010158Y74201D01*
X1012779Y74546D01*
X1015221Y75558D01*
X1017319Y77167D01*
X1018928Y79265D01*
X1019940Y81707D01*
X1020285Y84328D01*
X1019940Y86949D01*
X1018928Y89391D01*
X1017319Y91489D01*
X1015221Y93098D01*
X1012779Y94110D01*
X1010158Y94455D01*
D02*
G37*
G36*
X933958D02*
X931337Y94110D01*
X928895Y93098D01*
X926797Y91489D01*
X925188Y89391D01*
X924176Y86949D01*
X923831Y84328D01*
X924176Y81707D01*
X925188Y79265D01*
X926797Y77167D01*
X928895Y75558D01*
X931337Y74546D01*
X933958Y74201D01*
X936579Y74546D01*
X939021Y75558D01*
X941119Y77167D01*
X942728Y79265D01*
X943740Y81707D01*
X944085Y84328D01*
X943740Y86949D01*
X942728Y89391D01*
X941119Y91489D01*
X939021Y93098D01*
X936579Y94110D01*
X933958Y94455D01*
D02*
G37*
G36*
X857758D02*
X855137Y94110D01*
X852695Y93098D01*
X850597Y91489D01*
X848988Y89391D01*
X847976Y86949D01*
X847631Y84328D01*
X847976Y81707D01*
X848988Y79265D01*
X850597Y77167D01*
X852695Y75558D01*
X855137Y74546D01*
X857758Y74201D01*
X860379Y74546D01*
X862821Y75558D01*
X864919Y77167D01*
X866528Y79265D01*
X867540Y81707D01*
X867885Y84328D01*
X867540Y86949D01*
X866528Y89391D01*
X864919Y91489D01*
X862821Y93098D01*
X860379Y94110D01*
X857758Y94455D01*
D02*
G37*
G36*
X781558D02*
X778937Y94110D01*
X776495Y93098D01*
X774397Y91489D01*
X772788Y89391D01*
X771776Y86949D01*
X771431Y84328D01*
X771776Y81707D01*
X772788Y79265D01*
X774397Y77167D01*
X776495Y75558D01*
X778937Y74546D01*
X781558Y74201D01*
X784179Y74546D01*
X786621Y75558D01*
X788719Y77167D01*
X790328Y79265D01*
X791340Y81707D01*
X791685Y84328D01*
X791340Y86949D01*
X790328Y89391D01*
X788719Y91489D01*
X786621Y93098D01*
X784179Y94110D01*
X781558Y94455D01*
D02*
G37*
G36*
X679958D02*
X677337Y94110D01*
X674895Y93098D01*
X672797Y91489D01*
X671188Y89391D01*
X670176Y86949D01*
X669831Y84328D01*
X670176Y81707D01*
X671188Y79265D01*
X672797Y77167D01*
X674895Y75558D01*
X677337Y74546D01*
X679958Y74201D01*
X682579Y74546D01*
X685021Y75558D01*
X687119Y77167D01*
X688728Y79265D01*
X689740Y81707D01*
X690085Y84328D01*
X689740Y86949D01*
X688728Y89391D01*
X687119Y91489D01*
X685021Y93098D01*
X682579Y94110D01*
X679958Y94455D01*
D02*
G37*
G36*
X603758D02*
X601137Y94110D01*
X598695Y93098D01*
X596597Y91489D01*
X594988Y89391D01*
X593976Y86949D01*
X593631Y84328D01*
X593976Y81707D01*
X594988Y79265D01*
X596597Y77167D01*
X598695Y75558D01*
X601137Y74546D01*
X603758Y74201D01*
X606379Y74546D01*
X608821Y75558D01*
X610919Y77167D01*
X612528Y79265D01*
X613540Y81707D01*
X613885Y84328D01*
X613540Y86949D01*
X612528Y89391D01*
X610919Y91489D01*
X608821Y93098D01*
X606379Y94110D01*
X603758Y94455D01*
D02*
G37*
G36*
X527558D02*
X524937Y94110D01*
X522495Y93098D01*
X520397Y91489D01*
X518788Y89391D01*
X517776Y86949D01*
X517431Y84328D01*
X517776Y81707D01*
X518788Y79265D01*
X520397Y77167D01*
X522495Y75558D01*
X524937Y74546D01*
X527558Y74201D01*
X530179Y74546D01*
X532621Y75558D01*
X534719Y77167D01*
X536328Y79265D01*
X537340Y81707D01*
X537685Y84328D01*
X537340Y86949D01*
X536328Y89391D01*
X534719Y91489D01*
X532621Y93098D01*
X530179Y94110D01*
X527558Y94455D01*
D02*
G37*
G36*
X451358D02*
X448737Y94110D01*
X446295Y93098D01*
X444197Y91489D01*
X442588Y89391D01*
X441576Y86949D01*
X441231Y84328D01*
X441576Y81707D01*
X442588Y79265D01*
X444197Y77167D01*
X446295Y75558D01*
X448737Y74546D01*
X451358Y74201D01*
X453979Y74546D01*
X456421Y75558D01*
X458519Y77167D01*
X460128Y79265D01*
X461140Y81707D01*
X461485Y84328D01*
X461140Y86949D01*
X460128Y89391D01*
X458519Y91489D01*
X456421Y93098D01*
X453979Y94110D01*
X451358Y94455D01*
D02*
G37*
G36*
X331350Y76080D02*
X325120D01*
Y69850D01*
X331350D01*
Y76080D01*
D02*
G37*
G36*
X222504Y94455D02*
X219883Y94110D01*
X217441Y93098D01*
X215343Y91489D01*
X213734Y89391D01*
X212722Y86949D01*
X212377Y84328D01*
X212722Y81707D01*
X213734Y79265D01*
X215343Y77167D01*
X217441Y75558D01*
X219883Y74546D01*
X222504Y74201D01*
X225125Y74546D01*
X227567Y75558D01*
X228980Y76642D01*
X266552D01*
X266804Y75372D01*
X265447Y74810D01*
X263349Y73201D01*
X261740Y71103D01*
X260728Y68661D01*
X260483Y66793D01*
X259225Y65974D01*
X259150Y65970D01*
X258228Y66352D01*
X256239Y66614D01*
X232544D01*
Y68968D01*
X226314D01*
Y58928D01*
Y48888D01*
X232544D01*
Y51242D01*
X253055D01*
X258812Y45485D01*
X258812Y45485D01*
X260404Y44264D01*
X262258Y43496D01*
X264247Y43234D01*
X264247Y43234D01*
X306190D01*
X308179Y43496D01*
X310033Y44264D01*
X311625Y45485D01*
X322139Y56000D01*
X331350D01*
Y62230D01*
X321310D01*
Y66040D01*
X317500D01*
Y76080D01*
X311270D01*
Y66869D01*
X306533Y62133D01*
X305457Y62852D01*
X305692Y63419D01*
X306037Y66040D01*
X305692Y68661D01*
X304680Y71103D01*
X303071Y73201D01*
X300973Y74810D01*
X298531Y75822D01*
X296765Y76054D01*
X283057Y89763D01*
X281465Y90984D01*
X279611Y91752D01*
X277622Y92014D01*
X228980D01*
X227567Y93098D01*
X225125Y94110D01*
X222504Y94455D01*
D02*
G37*
G36*
X1020198Y68968D02*
X1013968D01*
Y62738D01*
X1020198D01*
Y68968D01*
D02*
G37*
G36*
X943998D02*
X937768D01*
Y62738D01*
X943998D01*
Y68968D01*
D02*
G37*
G36*
X867798D02*
X861568D01*
Y62738D01*
X867798D01*
Y68968D01*
D02*
G37*
G36*
X791598D02*
X785368D01*
Y62738D01*
X791598D01*
Y68968D01*
D02*
G37*
G36*
X689998D02*
X683768D01*
Y62738D01*
X689998D01*
Y68968D01*
D02*
G37*
G36*
X613798D02*
X607568D01*
Y62738D01*
X613798D01*
Y68968D01*
D02*
G37*
G36*
X537598D02*
X531368D01*
Y62738D01*
X537598D01*
Y68968D01*
D02*
G37*
G36*
X461398D02*
X455168D01*
Y62738D01*
X461398D01*
Y68968D01*
D02*
G37*
G36*
X1006348D02*
X1000118D01*
Y62738D01*
X1006348D01*
Y68968D01*
D02*
G37*
G36*
X218694D02*
X212464D01*
Y62738D01*
X218694D01*
Y68968D01*
D02*
G37*
G36*
X777748D02*
X771518D01*
Y62738D01*
X777748D01*
Y68968D01*
D02*
G37*
G36*
X447548D02*
X441318D01*
Y62738D01*
X447548D01*
Y68968D01*
D02*
G37*
G36*
X930148D02*
X923918D01*
Y62738D01*
X930148D01*
Y68968D01*
D02*
G37*
G36*
X853948D02*
X847718D01*
Y62738D01*
X853948D01*
Y68968D01*
D02*
G37*
G36*
X599948D02*
X593718D01*
Y62738D01*
X599948D01*
Y68968D01*
D02*
G37*
G36*
X523748D02*
X517518D01*
Y62738D01*
X523748D01*
Y68968D01*
D02*
G37*
G36*
X676148D02*
X669918D01*
Y62738D01*
X676148D01*
Y68968D01*
D02*
G37*
G36*
X1020198Y55118D02*
X1013968D01*
Y48888D01*
X1020198D01*
Y55118D01*
D02*
G37*
G36*
X1006348D02*
X1000118D01*
Y48888D01*
X1006348D01*
Y55118D01*
D02*
G37*
G36*
X943998D02*
X937768D01*
Y48888D01*
X943998D01*
Y55118D01*
D02*
G37*
G36*
X930148D02*
X923918D01*
Y48888D01*
X930148D01*
Y55118D01*
D02*
G37*
G36*
X867798D02*
X861568D01*
Y48888D01*
X867798D01*
Y55118D01*
D02*
G37*
G36*
X853948D02*
X847718D01*
Y48888D01*
X853948D01*
Y55118D01*
D02*
G37*
G36*
X791598D02*
X785368D01*
Y48888D01*
X791598D01*
Y55118D01*
D02*
G37*
G36*
X777748D02*
X771518D01*
Y48888D01*
X777748D01*
Y55118D01*
D02*
G37*
G36*
X689998D02*
X683768D01*
Y48888D01*
X689998D01*
Y55118D01*
D02*
G37*
G36*
X676148D02*
X669918D01*
Y48888D01*
X676148D01*
Y55118D01*
D02*
G37*
G36*
X613798D02*
X607568D01*
Y48888D01*
X613798D01*
Y55118D01*
D02*
G37*
G36*
X599948D02*
X593718D01*
Y48888D01*
X599948D01*
Y55118D01*
D02*
G37*
G36*
X537598D02*
X531368D01*
Y48888D01*
X537598D01*
Y55118D01*
D02*
G37*
G36*
X523748D02*
X517518D01*
Y48888D01*
X523748D01*
Y55118D01*
D02*
G37*
G36*
X461398D02*
X455168D01*
Y48888D01*
X461398D01*
Y55118D01*
D02*
G37*
G36*
X447548D02*
X441318D01*
Y48888D01*
X447548D01*
Y55118D01*
D02*
G37*
G36*
X218694D02*
X212464D01*
Y48888D01*
X218694D01*
Y55118D01*
D02*
G37*
%LPD*%
D10*
X1112266Y952500D02*
G03*
X1080516Y920750I0J-31750D01*
G01*
X1326760Y111750D02*
G03*
X1306760Y131750I-20000J0D01*
G01*
Y31750D02*
G03*
X1326760Y51750I0J20000D01*
G01*
X1126760D02*
G03*
X1146760Y31750I20000J0D01*
G01*
Y131750D02*
G03*
X1126760Y111750I0J-20000D01*
G01*
X1460500Y920750D02*
G03*
X1428750Y952500I-31750J0D01*
G01*
X1048766Y317500D02*
G03*
X1080516Y349250I0J31750D01*
G01*
X381000D02*
G03*
X412750Y317500I31750J0D01*
G01*
X381000Y920750D02*
G03*
X349250Y952500I-31750J0D01*
G01*
X31750D02*
G03*
X0Y920750I0J-31750D01*
G01*
Y76200D02*
G03*
X76200Y0I76200J0D01*
G01*
X1384300D02*
G03*
X1460500Y76200I0J76200D01*
G01*
X76200Y0D02*
X1384300D01*
X0Y76200D02*
Y920750D01*
X31750Y952500D02*
X349250D01*
X381000Y920750D02*
X381000Y349250D01*
X412750Y317500D02*
X1048766D01*
X1080516Y349250D02*
Y920750D01*
X1112266Y952500D02*
X1428750D01*
X1460500Y76200D02*
Y920750D01*
X1146760Y131750D02*
X1306760D01*
X1326760Y51750D02*
Y111750D01*
X1146760Y31750D02*
X1306760D01*
X1126760Y51750D02*
Y111750D01*
D15*
X1262380Y206756D02*
X1288034Y232410D01*
X1326134D01*
X1351788Y206756D01*
X1168400Y278130D02*
X1193800Y303530D01*
X1331214D01*
X1351788Y282956D01*
X1262380Y359156D02*
X1288034Y384810D01*
X1326134D01*
X1351788Y359156D01*
X1168400Y435356D02*
X1194054Y461010D01*
X1326134D01*
X1351788Y435356D01*
X1262380Y511556D02*
X1288034Y537210D01*
X1326134D01*
X1351788Y511556D01*
X1168400Y587756D02*
X1194054Y613410D01*
X1326134D01*
X1351788Y587756D01*
X1262380Y663956D02*
X1288034Y689610D01*
X1326134D01*
X1351788Y663956D01*
X1168400Y740156D02*
X1194054Y765810D01*
X1326134D01*
X1351788Y740156D01*
X1262380Y816356D02*
X1288034Y842010D01*
X1326134D01*
X1351788Y816356D01*
X1168400Y891540D02*
X1193800Y916940D01*
X1326388D01*
X1351788Y891540D01*
X451358Y109728D02*
Y147320D01*
X277622Y84328D02*
X295910Y66040D01*
X222504Y84328D02*
X277622D01*
X306190Y50920D02*
X321310Y66040D01*
X264247Y50920D02*
X306190D01*
X256239Y58928D02*
X264247Y50920D01*
X222504Y58928D02*
X256239D01*
X109728Y195326D02*
X242570D01*
X109728Y271526D02*
X148590D01*
X109728Y347726D02*
X242570D01*
X109728Y423926D02*
X148590D01*
X109728Y500126D02*
X242570D01*
X109728Y576326D02*
X148590D01*
X109728Y652526D02*
X242570D01*
X109728Y728726D02*
X148590D01*
X109728Y804926D02*
X242570D01*
X109728Y881126D02*
X148590D01*
D16*
X985520Y259842D02*
X1010158Y284480D01*
X985520Y134366D02*
Y259842D01*
Y134366D02*
X1010158Y109728D01*
X909320Y173482D02*
X933958Y198120D01*
X909320Y134366D02*
Y173482D01*
Y134366D02*
X933958Y109728D01*
X833120Y259842D02*
X857758Y284480D01*
X833120Y134366D02*
Y259842D01*
Y134366D02*
X857758Y109728D01*
X756920Y173482D02*
X781558Y198120D01*
X756920Y134366D02*
Y173482D01*
Y134366D02*
X781558Y109728D01*
X679958D02*
Y233680D01*
X603758Y109728D02*
Y147320D01*
X527558Y109728D02*
Y233680D01*
D17*
X148590Y881126D02*
D03*
X173990D02*
D03*
X242570Y804926D02*
D03*
X267970D02*
D03*
X148590Y728726D02*
D03*
X173990D02*
D03*
X242570Y652526D02*
D03*
X267970D02*
D03*
X148590Y576326D02*
D03*
X173990D02*
D03*
X242570Y500126D02*
D03*
X267970D02*
D03*
X148590Y423926D02*
D03*
X173990D02*
D03*
X242570Y347726D02*
D03*
X267970D02*
D03*
X148590Y271526D02*
D03*
X173990D02*
D03*
X242570Y195326D02*
D03*
X267970D02*
D03*
X270510Y66040D02*
D03*
X295910D02*
D03*
X451358Y147320D02*
D03*
Y172720D02*
D03*
X527558Y233680D02*
D03*
Y259080D02*
D03*
X603758Y147320D02*
D03*
Y172720D02*
D03*
X679958Y233680D02*
D03*
Y259080D02*
D03*
X781558Y198120D02*
D03*
Y172720D02*
D03*
X857758Y284480D02*
D03*
Y259080D02*
D03*
X933958Y198120D02*
D03*
Y172720D02*
D03*
X1010158Y284480D02*
D03*
Y259080D02*
D03*
X1168400Y587756D02*
D03*
X1193800D02*
D03*
X1262380Y511556D02*
D03*
X1287780D02*
D03*
X1168400Y435356D02*
D03*
X1193800D02*
D03*
X1262380Y359156D02*
D03*
X1287780D02*
D03*
X1168400Y278130D02*
D03*
X1193800D02*
D03*
X1262380Y206756D02*
D03*
X1287780D02*
D03*
X1262380Y816356D02*
D03*
X1287780D02*
D03*
X1168400Y740156D02*
D03*
X1193800D02*
D03*
X1262380Y663956D02*
D03*
X1287780D02*
D03*
X1193800Y891540D02*
D03*
X1168400D02*
D03*
X222504Y84328D02*
D03*
X679958D02*
D03*
Y109728D02*
D03*
X603758Y84328D02*
D03*
Y109728D02*
D03*
X527558Y84328D02*
D03*
Y109728D02*
D03*
X451358Y84328D02*
D03*
Y109728D02*
D03*
X1377188Y206756D02*
D03*
X1351788D02*
D03*
X1377188Y282956D02*
D03*
X1351788D02*
D03*
X1377188Y359156D02*
D03*
X1351788D02*
D03*
X1377188Y435356D02*
D03*
X1351788D02*
D03*
X1377188Y511556D02*
D03*
X1351788D02*
D03*
X1377188Y587756D02*
D03*
X1351788D02*
D03*
X1377188Y663956D02*
D03*
X1351788D02*
D03*
X1377188Y816356D02*
D03*
X1351788D02*
D03*
X1377188Y891540D02*
D03*
X1351788D02*
D03*
X84328Y195326D02*
D03*
X109728D02*
D03*
X84328Y271526D02*
D03*
X109728D02*
D03*
X84328Y347726D02*
D03*
X109728D02*
D03*
X84328Y423926D02*
D03*
X109728D02*
D03*
X84328Y500126D02*
D03*
X109728D02*
D03*
X84328Y576326D02*
D03*
X109728D02*
D03*
X84328Y652526D02*
D03*
X109728D02*
D03*
X84328Y728726D02*
D03*
X109728D02*
D03*
X84328Y804926D02*
D03*
X109728D02*
D03*
X84328Y881126D02*
D03*
X109728D02*
D03*
X1010158Y84328D02*
D03*
Y109728D02*
D03*
X933958Y84328D02*
D03*
Y109728D02*
D03*
X857758Y84328D02*
D03*
Y109728D02*
D03*
X781558Y84328D02*
D03*
Y109728D02*
D03*
X1377188Y740156D02*
D03*
X1351788D02*
D03*
D18*
X199390Y881126D02*
D03*
X293370Y804926D02*
D03*
X199390Y728726D02*
D03*
X293370Y652526D02*
D03*
X199390Y576326D02*
D03*
X293370Y500126D02*
D03*
X199390Y423926D02*
D03*
X293370Y347726D02*
D03*
X199390Y271526D02*
D03*
X293370Y195326D02*
D03*
X321310Y66040D02*
D03*
X1219200Y587756D02*
D03*
X1313180Y511556D02*
D03*
X1219200Y435356D02*
D03*
X1313180Y359156D02*
D03*
X1219200Y278130D02*
D03*
X1313180Y206756D02*
D03*
Y816356D02*
D03*
X1219200Y740156D02*
D03*
X1313180Y663956D02*
D03*
X1219200Y891540D02*
D03*
X1402588Y206756D02*
D03*
Y282956D02*
D03*
Y359156D02*
D03*
Y435356D02*
D03*
Y511556D02*
D03*
Y587756D02*
D03*
Y663956D02*
D03*
Y816356D02*
D03*
Y891540D02*
D03*
X58928Y195326D02*
D03*
Y271526D02*
D03*
Y347726D02*
D03*
Y423926D02*
D03*
Y500126D02*
D03*
Y576326D02*
D03*
Y652526D02*
D03*
Y728726D02*
D03*
Y804926D02*
D03*
Y881126D02*
D03*
X1402588Y740156D02*
D03*
D19*
X451358Y198120D02*
D03*
X527558Y284480D02*
D03*
X603758Y198120D02*
D03*
X679958Y284480D02*
D03*
X781558Y147320D02*
D03*
X857758Y233680D02*
D03*
X933958Y147320D02*
D03*
X1010158Y233680D02*
D03*
X222504Y58928D02*
D03*
X679958D02*
D03*
X603758D02*
D03*
X527558D02*
D03*
X451358D02*
D03*
X1010158D02*
D03*
X933958D02*
D03*
X857758D02*
D03*
X781558D02*
D03*
M02*
